
<svg version="1.1" id="图层_1"
	xmlns="http://www.w3.org/2000/svg"
	xmlns:xlink="http://www.w3.org/1999/xlink" x="0px" y="0px" viewBox="0 0 140 140" style="enable-background:new 0 0 140 140;" xml:space="preserve">
	<style type="text/css">
.pen {
            fill: none;
            stroke: black;
            stroke-width: 30;
            stroke-linecap: round;
            stroke-linejoin: round;

            stroke-dashoffset: 0;
            animation-duration: 3s;
			animation-delay:3s;
            animation-iteration-count: 1;
            animation-timing-function: ease;
        }

        .line-1 {
            clip-path: url(#不-1);
            stroke-dasharray: 72;
            animation-name: draw-不-1;
        }

        @keyframes draw-不-1 {
            0% {
                stroke-dashoffset: 72;
            }

            25% {
                stroke-dashoffset: 0;
            }
        }

        .line-2 {
            clip-path: url(#不-2);
            stroke-dasharray: 149;
            animation-name: draw-不-2;
        }

        @keyframes draw-不-2 {

            0%,
            25% {
                stroke-dashoffset: 149;
            }

            60% {
                stroke-dashoffset: 0;
            }
        }

        .line-3 {
            clip-path: url(#不-3);
            stroke-dasharray: 54;
            animation-name: draw-不-3;
        }

        @keyframes draw-不-3 {

            0%,
            60% {
                stroke-dashoffset: 54;
            }

            80% {
                stroke-dashoffset: 0;
            }
        }

        .line-4 {
            clip-path: url(#不-4);
            stroke-dasharray: 52;
            animation-name: draw-不-4;
        }

        @keyframes draw-不-4 {

            0%,
            80% {
                stroke-dashoffset: 52;
            }

            100% {
                stroke-dashoffset: 0;
            }
        }

	</style>

	<path id="line-1" class="pen line-1" d="M37.09,26.08c22.67-7.64,45.56-14.65,68.62-21.01"/>
	<path id="line-2" class="pen line-2" d="M81.43,1.57c2.1,3.93,2.14,8.7,1.05,13.02c-1.09,4.32-3.21,8.29-5.32,12.22
	C71.5,37.34,65.85,47.88,60.19,58.42c-1.1,2.05-2.21,4.12-2.77,6.37c-1.01,3.99-0.24,8.24,1.23,12.08c1.47,3.84,3.6,7.38,5.45,11.06
	c4.99,9.92,7.89,20.88,8.45,31.96c0.16,3.1,0.13,6.26-0.82,9.22c-2.65-2.75-5.59-5.22-8.77-7.35"/>
	<path id="line-3" class="pen line-3" d="M8.18,90.47c4.56,7.62,10.95,14.14,18.48,18.84c1.45,0.9,2.97,1.75,4.64,2.12
	c3.52,0.77,7.23-0.79,9.86-3.25s4.34-5.73,5.84-9"/>
	<path id="line-4" class="pen line-4" d="M95.71,71.99c8.46,5.01,14.84,13.4,17.41,22.89c0.85,3.14,1.27,6.59-0.09,9.54
	c-0.64,1.38-1.63,2.56-2.68,3.66c-1.76,1.83-3.73,3.45-5.86,4.83"/>
	<defs>
		<clipPath id="不-1">
			<path d="M96.92,5.29c-4.13-3.01-8.8-3.25-13.36-1.75C70.5,7.83,57.26,11.64,44.79,17.59c-1.49,0.71-3.45,1.15-3.46,3.14
	c-0.01,2.23,1.65,3.56,3.6,4.32c4.33,1.68,8.83,1.71,13.27,0.68c4.78-1.11,9.49-2.53,15.41-4.14c-0.01,0.02-0.02,0.03-0.03,0.05
	c7.62-2.45,15.9-3.59,23.04-7c0.13-0.1,0.26-0.21,0.39-0.31C100.93,11.46,100.94,8.21,96.92,5.29z"/>
		</clipPath>
		<clipPath id="不-2">
			<path d="M53.7,59.34c-5.26,11.52-3.43,21.38,6.2,29.65c3.6,3.09,5.46,6.68,5.94,11.04c0.53,4.79,0.47,9.63,0.71,14.45
	c0.17,3.41-1.31,4.02-4.32,2.96c-2.81-0.99-5.75-1.62-8.64-2.39c-0.92-0.25-2.06-0.87-2.62,0.39c-0.55,1.24,0.75,1.63,1.46,2.19
	c5.98,4.65,11.25,9.91,14.53,16.86c0.75,1.59,2,2.13,3.48,2.49c6.36,1.54,10.29-1.36,10.36-8.39c0.08-7.13-0.43-14.29-0.95-21.41
	C79.18,98.26,77,90.07,68.5,85.07c-1.82-1.07-3.29-2.81-4.78-4.38c-4.75-5.01-5.69-12.47-2.13-18.39
	c7.37-12.26,15.03-24.34,23.91-35.59c3.39-4.3,6.72-8.71,11.13-12.07c-7.14,3.41-15.42,4.55-23.04,7
	C65.23,34.16,59.44,46.74,53.7,59.34z"/>
		</clipPath>
		<clipPath id="不-3">
			<path d="M37,102.31c0.32,2.33-0.78,4.27,0.41,6.21c2.95,4.81-2.65,11.19-7.68,11.24
	c-5.9,0.05-9.52-4.25-12.69-8.57c-2.71-3.69-2.65-7.74-0.37-11.71c2.28-3.97,4.21-4.03,6.93-0.25
	C28.86,106.53,28.86,106.53,37,102.31z"/>
		</clipPath>
		<clipPath id="不-4">
			<path d="M101.94,110.4c9.14-9.5,4.07-18.34-0.28-27.22c-0.86-1.75-2.7-3.79-1.42-5.45
	c1.19-1.55,3.76-0.76,5.7-0.47c8.9,1.31,19.63,14.61,19.05,23.48c-0.38,5.75-3.16,8.61-8.64,7.09
	C110.98,106.35,106.74,107.18,101.94,110.4z"/>
		</clipPath>
	</defs>
</svg>
