<?xml version="1.0" encoding="utf-8"?>
<!-- Generator: Adobe Illustrator 27.9.0, SVG Export Plug-In . SVG Version: 6.00 Build 0)  -->
<svg version="1.1" id="图层_1"
	xmlns="http://www.w3.org/2000/svg"
	xmlns:xlink="http://www.w3.org/1999/xlink" x="0px" y="0px" viewBox="0 0 238.75 232.67" style="enable-background:new 0 0 238.75 232.67;" xml:space="preserve">
	<style type="text/css">
.pen {
            fill: none;
            stroke: black;
            stroke-width: 18;
            stroke-linecap: round;
            stroke-linejoin: round;

            stroke-dashoffset: 0;
            animation-duration: 3s;
            <!-- animation-delay: 9s; -->
            animation-iteration-count: 1;
            animation-timing-function: ease;
        }

	 	#line-1 {
            clip-path: url(#吾);
            stroke-dasharray: 180;
            animation-name: draw-吾-1;
        }
        @keyframes draw-吾-1 {
			0%{
				opacity: 0;
			}
            0% {
                stroke-dashoffset: 180;
            }

            20% {
                stroke-dashoffset: 0;
				opacity: 1;
            }
        }

		 #line-2 {
            clip-path: url(#吾);
            stroke-dasharray: 147;
            animation-name: draw-吾-2;
			
        }
        @keyframes draw-吾-2 {
			0%{
				opacity: 0;
			}
            0%,20% {
				opacity: 1;
                stroke-dashoffset: 147;
            }

            40% {
                stroke-dashoffset: 0;
				opacity: 1;
            }
        }

		#line-3 {
            clip-path: url(#吾);
            stroke-dasharray: 192;
            animation-name: draw-吾-3;
			
        }
        @keyframes draw-吾-3 {
			0%{
				opacity: 0;
			}
            0%,40% {
				opacity: 1;
                stroke-dashoffset: 192;
            }

            60% {
                stroke-dashoffset: 0;
				opacity: 1;
            }
        }

		#line-4 {
			
            clip-path: url(#吾);
            stroke-dasharray: 78;
            animation-name: draw-吾-4;
        }
        @keyframes draw-吾-4 {
			0%{
				opacity: 0;
			}
            0%,60% {
				opacity: 1;
                stroke-dashoffset: 78;
            }

            80% {
                stroke-dashoffset: 0;
				opacity: 1;
            }
        }

		#line-5 {
			
            clip-path: url(#吾);
            stroke-dasharray: 148;
            animation-name: draw-吾-5;
        }
        @keyframes draw-吾-5 {
			0%{
				opacity: 0;
			}
            0%,80% {
				opacity: 1;
                stroke-dashoffset: 148;
            }

            100% {
				opacity: 1;
                stroke-dashoffset: 0;
            }
        }
		
		
	</style>
	<path id="line-1" class="pen line-1" d="M79.26,53.44c23.76,0.09,47.53-5.74,68.55-16.82c-3.45-0.31-6.11,2.82-8.18,5.6
	c-5.67,7.63-11.72,14.98-18.12,22.01c-3.52,3.86-7.16,7.66-10.05,12.01c-3.91,5.89-6.33,12.61-9.18,19.09
	c-4.32,9.85-9.73,19.36-11.97,29.88"/>
	<path id="line-2" class="pen line-2" d="M77.75,86.71c20.44-2.59,41.04-3.84,61.64-3.74c7.74,0.04,15.66,0.29,22.89,3.07
	c-1.91,3.03-6.07,3.39-9.51,4.42c-5.92,1.77-10.6,6.23-14.94,10.63c-7.34,7.44-14.43,15.2-20.28,23.86"/>
	<path id="line-3" class="pen line-3" d="M18.69,144.35c5.89-4.55,13.7-5.54,21.1-6.25c25.59-2.43,51.33-3.26,76.84-6.43
	c15.15-1.88,30.22-4.59,45.46-5.41c15.24-0.82,30.85,0.31,45.07,5.87"/>
	<path id="line-4" class="pen line-4" d="M103.63,129.25c-6.57,10.95-8.6,24.05-8.83,36.82c-0.04,2.2-0.03,4.43,0.45,6.57
	c0.56,2.49,1.73,4.79,2.5,7.22c2.41,7.6,0.92,16.49,5.34,23.12"/>
	<path id="line-5" class="pen line-5" d="M91.67,155.58c14.57-0.65,29.14-1.29,43.71-1.94c6.89-0.31,13.85-0.62,20.48-2.52
	c-8.8,12.54-22.4,21.02-31.6,33.27c11.27-1.52,22.55-3.03,33.82-4.55c0.95-0.13,1.95-0.25,2.85,0.08"/>

	<defs>
		<clipPath id="吾">
			<path d="M137.55,30.95c2.23-0.38,4.56-1.26,6.82-0.48c2.34,0.82,4.94,1.15,7,2.62c0.88,0.59,0.75,1.72,0.84,2.64
	c0.06,1.94,0.1,4.08-1.14,5.7c-2.6,3.64-7.01,5.24-10.04,8.45c-2.25,2.48-4.85,4.71-6.54,7.64c-1.94,3.28-4.65,5.98-7.09,8.89
	c-1.28,1.5-2.01,3.4-3.38,4.83c-2.59,0.9-5.49,1.27-7.48,3.37c1.35,0.27,2.73,0.42,4.04,0.87c1.69,0.52,2.02,2.75,3.63,3.36
	c5.33,0.3,10.35-1.7,15.48-2.78c2.37-0.79,4.54-2.22,7.08-2.46c3.97-0.47,8.37-1.51,12.02,0.73c2.07,1.33,4.49,1.86,6.66,2.93
	c2.41,2.03,4.97,3.96,6.94,6.42c0.3,2.52-0.65,5.41-2.94,6.73c-2.22,1.31-4.77,1.96-6.91,3.4c-2.29,1.53-4.4,3.31-6.66,4.88
	c-2.41,1.61-4.29,3.88-6.77,5.38c-4.42,2.64-9.02,4.97-13.28,7.87c-0.96,0.61-2.02,1.02-3.07,1.46c-0.45,0.77-0.9,1.54-1.34,2.32
	c-1.15,0.35-2.34,0.61-3.36,1.26c-3.2,2.06-6.64,4.03-8.74,7.33c1.32,0.67,2.6,1.54,4.1,1.73c2.39,0.46,4.82-0.45,7.2,0.1
	c1.26,0.29,2.46,0.76,3.69,1.15c-0.12,0.36-0.34,1.09-0.45,1.47c-2.43,0.01-4.94-0.62-7.3,0.19c-4.27,1.48-8.79,1.92-13.2,2.79
	c-3.95,1.47-7.62,3.61-11.55,5.15c-0.61,1.68-1.26,3.36-2,4.99c-1.52,2.91-1.27,6.3-2.11,9.41c2,0.99,4.06,2.39,6.41,2
	c2.85-0.38,5.48-1.75,8.37-1.94c3.48-0.15,6.27-2.49,9.59-3.22c3.19-0.74,5.75-3,8.9-3.86c3.52-0.97,7.23-1.72,10.28-3.85
	c1.99-1.23,4.21-2.89,6.69-2.21c3.88,0.86,8.16,0.27,11.66,2.45c3.51,2.14,7.2,4.23,9.96,7.34c1.19,1.27,1.38,3.13,0.68,4.7
	c-0.68,2.69-3.25,4.08-5.21,5.77c-6.39,5.18-13.49,9.42-19.55,15c-0.72,0.65-1.25,1.57-0.93,2.56c3.03,1.82,6.82,0.29,10,1.67
	c3.58,1.16,6.28,3.94,8.71,6.69c0.84,0.86,0.7,2.17,0.96,3.27c-5.8,2.91-12.46,2.68-18.77,3.23c-3.48,0.66-6.98,1.48-10.55,1.34
	c-1.97,0.04-4.07-0.26-5.91,0.62c-2.32,1.09-4.87,1.81-7.45,1.82c-1.42-0.47-2.54-1.56-3.76-2.4c0.41-3.72-0.09-7.44,0.08-11.16
	c-0.04-1.21,1.13-1.91,1.92-2.63c3.02-2.32,6.26-4.4,8.85-7.24c1.35-1.54,3.29-2.25,4.99-3.3c1.64-2.36,2.64-5.08,3.93-7.64
	c0.58-0.98,0.22-2.12,0.17-3.18c-1.61,0.19-3.23,0.4-4.85,0.29c-1.69-0.16-3.24-1.04-4.95-1.03c-2.69,0.64-4.66,3.51-7.62,3.07
	c-2.5-0.4-5.02,0.08-7.51-0.18c-3.92-0.9-7.92-1.4-11.86-2.16c-1.14-0.27-2.24,0.25-3.33,0.5c0.29,4.63,1.64,9.09,2.41,13.65
	c0.42,3.15,1.84,6.05,2.25,9.2c0.45,3.42,0.9,6.91,2.37,10.07c1.06,1.75-0.06,3.66,0.03,5.52c0.08,2.09,0.29,4.19,0.03,6.28
	c-1.57,0.08-3.17,0.34-4.71-0.02c-2.11-1.76-3.79-4.1-4.61-6.73c-0.7-2.04-1.84-3.88-2.98-5.71c-1.47-2.08,0.2-4.89-1.22-6.98
	c-2.3-3.3-2.71-7.37-3.67-11.16c-0.31-1.95-1.43-4.06-0.24-5.94c2.8-4.72,1.77-10.43,2.4-15.62c1.14-3.76,2.57-7.67,5.56-10.38
	c0.7-0.75,1.77-1.32,1.87-2.45c-2.32-1.89-5.42-1.02-8.06-0.49c-1.91,0.88-3.83,1.88-6,1.87c-3.64,0.04-6.72,2.3-10.23,2.97
	c-1.43,0.28-2.75,0.9-3.99,1.63c-3.29-1.04-6.34,1.24-9.63,0.52c-1.92-0.29-3.65,0.75-5.45,1.19c-2.22,0.68-4.55,0.26-6.83,0.33
	c-3.01,0.26-5.45-1.8-8.09-2.87c-1.52-3.02-4.82-4.37-7.3-6.46c0.89-0.9,1.78-1.79,2.68-2.68c1.59,0.91,3.27,1.72,5.13,1.8
	c4.2,0.55,9.15,1.38,12.74-1.47c4.54,1.65,9.11-0.53,13.72-0.45c1.3-0.02,2.6-0.12,3.83-0.58c3.3-1.25,6.94-1,10.35-0.4
	c2.05,0.61,4.06-1.03,4.99-2.73c-1.48-3.2-3.28-6.53-3.16-10.16c0.12-1.65,1.87-2.18,3-3c1.49-0.79,1.61-2.63,2.37-3.96
	c0.83-1.77,2.6-3.01,3-5c0.94-4.1,4.49-6.82,6.37-10.46c0.97-1.95,2.09-3.83,2.87-5.86c-0.06-1.73-0.92-3.3-2.09-4.54
	c2.4-1.65,4.97-3.03,7.49-4.47c0.49-1.27,1.14-2.46,1.65-3.72c0.76-2.04,0.42-4.51,1.81-6.29c2.3-1.82,5.16-2.85,7.12-5.14
	c-0.72-1.96-2.21-4.06-1.37-6.22c1.09-2.48,2.52-4.8,3.64-7.27c-1.03-0.82-1.95-1.84-3.19-2.36c-1.8,0.83-3.64,1.61-5.63,1.89
	c-2.01,0.29-3.85,1.38-5.86,1.52c-3.23-1.57-6.32-3.63-10.03-3.9c-0.04-0.17-0.12-0.51-0.15-0.67c-0.87-0.63-1.72-1.29-2.55-1.96
	c2.62,0.1,5.54,0.88,7.92-0.63c3.57-2.01,7.63-2.89,11.37-4.54c1-0.72,1.68-1.79,2.5-2.69c1.32-0.13,2.68-0.09,3.96-0.5
	c1.43-0.88,2.6-2.16,4.16-2.84c1.84-0.79,3.94-0.56,5.8-1.29c1.56-0.95,2.59-2.56,4.12-3.56C132.55,31.43,135.1,31.5,137.55,30.95
	 M172.02,119.38c3.11-0.4,6.21-0.98,9.35-1.13c1.94,1.13,4.23,0.99,6.36,1.39c2.78,0.43,5.08,2.17,7.63,3.24
	c2.21,1.18,4.82,1.72,6.61,3.59c2.49,2.31,5.28,5.06,5.22,8.72c-1.11,2.58-3.49,4.44-5.99,5.59c-2.01,0.26-4.09,0.22-6.09-0.13
	c-2.45-0.97-4.55-2.71-7.14-3.39c-3.61-0.93-6.37-3.62-9.76-5.02c-3.18-0.43-6.48,1.68-9.54,0.06c-3.23-1.55-6.87-1.85-10.18-3.16
	c-2.52-0.89-5.22-1.76-7.91-1.17c-2.8,0.82-5.69,1.43-8.61,1.5c-1.95-0.04-4.31-1.55-3.91-3.74c-0.08-1.62,1.63-2.41,2.55-3.48
	c0.29,0.68,0.6,1.37,0.89,2.05c7-3.55,15.02-3.99,22.71-4.54C166.79,119.32,169.41,119.09,172.02,119.38z M132.06,88.23
	c-4.51,0.84-9.12-0.13-13.64,0.49c-3.02,1.11-5.27,3.81-5.9,6.98c-0.93,4.41-5.65,6.51-6.89,10.75c-1.26,3.85-4.14,7.03-4.65,11.14
	c-0.63,3.69-2.73,7.02-2.85,10.8c3.02-0.1,6.08-0.44,8.86-1.73c2.59-1.18,5.71-0.59,8.12-2.21c1.26-0.77,1.63-2.28,2.35-3.48
	c0.99-2.09,3.27-3.05,4.56-4.91c1.84-2.64,4.73-4.23,6.82-6.64c3-2.31,5.96-4.66,8.79-7.17c1.34-1.36,1.7-3.35,2.92-4.8
	c0.95-1.16,2.15-2.12,2.96-3.39c0.5-1.49,0.94-3.06,0.9-4.64c-0.38-1.64-2.25-2.14-3.72-2.04C137.8,87.52,134.88,87.57,132.06,88.23
	z"/>
		</clipPath>
	</defs>
</svg>
