<?xml version="1.0" encoding="utf-8"?>
<!-- Generator: Adobe Illustrator 27.9.0, SVG Export Plug-In . SVG Version: 6.00 Build 0)  -->
<svg version="1.1" id="图层_1"
	xmlns="http://www.w3.org/2000/svg"
	xmlns:xlink="http://www.w3.org/1999/xlink" x="0px" y="0px" viewBox="0 0 190.19 1534.25" style="enable-background:new 0 0 190.19 1534.25;" xml:space="preserve">
	<style type="text/css">
	.st0{fill:none;}
	</style>

	<path id="line-味-1" class="st0" d="M6.13,67.33c1.43,2.41,2.09,5.19,3.28,7.73c1.73,3.71,4.56,6.85,6.08,10.64
	c3.3,8.22-0.04,17.96,3.2,26.2"/>
	<path id="line-味-2" class="st0" d="M15.01,75.13c11.11-0.51,22.13-2.99,32.38-7.28c2.5-1.05,5.04-2.26,6.79-4.34
	c-0.39,1.78-1.47,3.32-2.53,4.81c-3.36,4.7-6.72,9.41-10.08,14.11c-1.08,1.51-2.16,3.03-2.99,4.68c-0.77,1.53-1.31,3.16-1.9,4.76
	c-1.88,5.14-4.21,10.11-6.95,14.85c10.89-5.35,21.04-12.46,28.87-21.74"/>
	<path id="line-味-3" class="st0" d="M84.78,58.08c6.46,0.18,12.86-1,19.21-2.17c5.89-1.09,11.94-2.24,17.04-5.39
	c1.36-0.84,2.65-1.82,4.07-2.56c1.58-0.82,3.32-1.32,5.09-1.48c-0.53,1.5-1.53,2.79-2.58,3.99c-3.94,4.52-8.79,8.16-12.83,12.59
	c-3.74,4.11-7.04,9.1-12.25,11.04"/>
	<path id="line-味-4" class="st0" d="M74.36,102.88c5.31,3.5,11.89,4.72,18.24,4.44c6.36-0.27,12.56-1.95,18.63-3.86
	c6.07-1.91,12.08-4.06,18.31-5.34c2.08-0.43,4.2-0.76,6.2-1.5c1.39-0.52,2.94-1.69,2.57-3.13c-0.18-0.7-0.78-1.2-1.35-1.64
	c-2.12-1.68-4.25-3.36-6.37-5.05"/>
	<path id="line-味-5" class="st0" d="M116.14,0l-4.06,166.06c-2.31-1.5-5.19-1.94-7.87-2.55c-3.91-0.89-7.82-1.78-11.73-2.67"/>
	<path id="line-味-6" class="st0" d="M128.14,96.09c-7.63,4.59-15.15,9.5-21.53,15.71c-2.47,2.4-4.77,5-7.41,7.21
	c-5.4,4.53-12.03,7.32-17.81,11.36c-4.01,2.81-7.57,6.2-11.49,9.12c-7.63,5.68-16.61,9.51-25.98,11.1"/>
	<path id="line-味-7" class="st0" d="M115.81,115.19c2.86,1.75,5.84,3.29,8.82,4.83c4.78,2.47,9.55,4.93,14.33,7.4
	c3.5,1.81,7.04,3.64,10.03,6.22c2.15,1.86,3.97,4.08,6.03,6.05c9.73,9.3,24.39,12.69,32.73,23.26"/>

	
	<path id="line-味-1.1" class="st0" d="M6.14,507.53c1.43,2.41,2.09,5.19,3.28,7.73c1.73,3.71,4.56,6.85,6.08,10.64
	c3.3,8.22-0.04,17.96,3.2,26.2"/>
	<path id="line-味-2.1" class="st0" d="M15.02,515.32c11.11-0.51,22.13-2.99,32.38-7.28c2.5-1.05,5.04-2.26,6.79-4.34
	c-0.39,1.78-1.47,3.32-2.53,4.81c-3.36,4.7-6.72,9.41-10.08,14.11c-1.08,1.51-2.16,3.03-2.99,4.68c-0.77,1.53-1.31,3.16-1.9,4.76
	c-1.88,5.14-4.21,10.11-6.95,14.85c10.89-5.35,21.04-12.46,28.87-21.74"/>
	<path id="line-味-3.1" class="st0" d="M84.79,498.28c6.46,0.18,12.86-1,19.21-2.17c5.89-1.09,11.94-2.24,17.04-5.39
	c1.36-0.84,2.65-1.82,4.07-2.56c1.58-0.82,3.32-1.32,5.09-1.48c-0.53,1.5-1.53,2.79-2.58,3.99c-3.94,4.52-8.79,8.16-12.83,12.59
	c-3.74,4.11-7.04,9.1-12.25,11.04"/>
	<path id="line-味-4.1" class="st0" d="M74.37,543.08c5.31,3.5,11.89,4.72,18.24,4.44c6.36-0.27,12.56-1.95,18.63-3.86
	c6.07-1.91,12.08-4.06,18.31-5.34c2.08-0.43,4.2-0.76,6.2-1.5c1.39-0.52,2.94-1.69,2.57-3.13c-0.18-0.7-0.78-1.2-1.35-1.64
	c-2.12-1.68-4.25-3.36-6.37-5.05"/>
	<path id="line-味-5.1" class="st0" d="M116.15,440.19l-4.06,166.06c-2.31-1.5-5.19-1.94-7.87-2.55c-3.91-0.89-7.82-1.78-11.73-2.67
	"/>
	<path id="line-味-6.1" class="st0" d="M128.15,536.28c-7.63,4.59-15.15,9.5-21.53,15.71c-2.47,2.4-4.77,5-7.41,7.21
	c-5.4,4.53-12.03,7.32-17.81,11.36c-4.01,2.81-7.57,6.2-11.49,9.12c-7.63,5.68-16.61,9.51-25.98,11.1"/>
	<path id="line-味-7.1" class="st0" d="M115.82,555.38c2.86,1.75,5.84,3.29,8.82,4.83c4.78,2.47,9.55,4.93,14.33,7.4
	c3.5,1.81,7.04,3.64,10.03,6.22c2.15,1.86,3.97,4.08,6.03,6.05c9.73,9.3,24.39,12.69,32.73,23.26"/>
	<path id="line-无-1" class="st0" d="M47.37,221.95c3.83,8,7.66,15.99,11.49,23.99c2.41,5.03,4.86,10.12,8.43,14.4
	c1.96,2.34,4.29,4.46,7.1,5.65c2.23,0.94,4.67,1.27,7.07,1.59c5.09,0.67,10.18,1.34,15.27,2.01c4.01,0.53,8.04,1.06,12.08,0.97
	c10.19-0.23,19.83-4.36,29.32-8.09c9.49-3.74,19.54-7.2,29.66-6.01"/>
	<path id="line-无-2" class="st0" d="M184.58,253.81c-3.58,2.17-7.15,4.34-10.73,6.52c-4.45,2.7-8.91,5.41-13.63,7.62
	c-5.29,2.48-10.85,4.3-16.32,6.35c-13.09,4.9-25.65,11.07-38.14,17.34c-15.03,7.54-29.99,15.23-44.68,23.42"/>
	<path id="line-无-3" class="st0" d="M15.3,335.09c14.58,0.24,28.69-4.7,43.12-6.84c4.07-0.6,8.17-0.98,12.25-1.55
	c9.25-1.28,18.34-3.52,27.41-5.76c11.2-2.76,22.41-5.52,33.61-8.28c2.15,4.25,0.42,9.38-1.55,13.72
	c-10.16,22.35-26.53,41.83-46.78,55.7"/>
	<path id="line-无-4" class="st0" d="M38.25,292.07c3,5.66,6.13,11.33,10.37,16.14c1.58,1.79,3.31,3.46,4.86,5.27
	c8.59,10.02,11.24,23.67,13.58,36.66"/>
	<path id="line-无-5" class="st0" d="M89.3,287.17c4.48,7.87,6.05,17.01,7.56,25.94c1.15,6.85,2.31,13.71,3.46,20.56"/>
	<path id="line-无-6" class="st0" d="M30.25,376.96c3.17-4.06,6.35-8.14,10.06-11.73c11.63-11.27,27.44-16.86,41.73-24.49
	c6.74-3.6,13.26-7.72,20.45-10.3c5.19-1.86,10.67-2.89,16.18-3.03"/>
	<path id="line-无-7" class="st0" d="M4.98,373.89c16.35-4.11,32.71-8.22,49.06-12.33c9.23-2.32,18.47-4.64,27.8-6.51
	c10.33-2.06,20.76-3.57,31.19-5.07c5.96-0.86,11.93-1.72,17.89-2.58c15.08-2.17,30.82-4.29,45.28,0.55"/>
	<path id="line-无-8" class="st0" d="M66.26,400.35c1.78-1.91,4.4-2.75,6.9-3.49c8.58-2.54,17.28-4.69,25.97-6.84
	c11.76-2.91,23.51-5.82,35.3-8.57c2.51-0.59,5.04-1.17,7.62-1.28c5.93-0.27,11.65,1.92,17.18,4.08c-0.24,0.46-0.77,0.69-1.26,0.88
	c-12.01,4.69-24.46,8.11-36.89,11.53"/>
	<path id="line-处-1" class="st0" d="M63.12,676.15c-1.98,0.63-4.05,1.31-5.51,2.8c-0.74,0.75-1.28,1.67-1.81,2.57
	c-5.7,9.71-11.4,19.43-16.48,29.47c-1.37,2.71-2.7,5.45-3.65,8.34c-2.13,6.47-2.26,13.4-2.37,20.21c-0.02,1.47,0.03,3.13,1.1,4.13" />
	<path id="line-处-2" class="st0" d="M15.9,742.28c3.74-3.3,7.88-6.15,12.31-8.46c4.7-2.46,9.72-4.3,14.29-7
	c2.34-1.38,4.55-2.97,6.78-4.53c13.19-9.23,27.26-17.41,42.53-22.51c15.27-5.1,31.83-7.01,47.57-3.67"/>
	<path id="line-处-3" class="st0" d="M136.1,685.61c0.94,5.98-0.14,12.27-3.02,17.6s-7.56,9.66-13.09,12.14
	c-3.2,1.44-6.64,2.25-10.07,2.98c-7.05,1.49-14.17,2.63-21.33,3.41"/>
	<path id="line-处-4" class="st0" d="M91.05,684.03c3.92,13.72,1.8,29.06-5.71,41.2c2.66-1.04,5.99-1.96,8.09-0.04
	c2.25,2.06,1.34,5.75,0.11,8.54c-7.02,15.94-19.07,29.63-34,38.6c12.48-3.64,25.49-7.31,38.32-5.18c3.27,0.55,6.51,1.48,9.37,3.16
	c7.52,4.41,11.36,13.54,11.34,22.26s-3.36,17.09-7.43,24.8c-3.41,6.46-7.75,12.96-14.42,15.93c-8.83,3.93-20.25-0.16-25.01-8.58"/>
	<path id="line-处-5" class="st0" d="M77.13,766.02c0.58,6.49-1.17,13.01-3.96,18.9s-6.59,11.23-10.37,16.53"/>
	<path id="line-处-6" class="st0" d="M65.89,782.37c0.83-1.2,2.52-1.36,3.98-1.29c4.96,0.24,9.85,1.86,13.97,4.63
	c0.78,0.52,1.53,1.09,2.11,1.83c1.44,1.85,1.5,4.41,1.23,6.74c-1.05,9.11-6.3,17.65-13.97,22.69c-1.99,1.31-4.12,2.39-6.24,3.46
	c-3.05,1.54-6.12,3.09-9.35,4.21c-8.15,2.8-16.97,2.7-25.59,2.58c-0.48-0.01-1-0.03-1.37-0.34"/>
	<path id="line-处-7" class="st0" d="M31,798.95c11.42,1.14,22.86,2.28,34.08,4.65c36.83,7.77,69.51,28.28,101.31,48.43"/>
	<path id="line-求-1_00000023242977869401413790000012565975717909965190_" class="st0" d="M119.52,906.73
	c2.98,5.94,4.79,12.55,4.58,19.19c-0.21,6.64-2.52,13.31-6.98,18.23c-2.6,2.87-5.84,5.09-9.17,7.06
	c-8.21,4.86-17.19,8.41-26.5,10.48c-4.16,0.92-8.37,1.55-12.59,2.17c-3.75,0.56-7.55,1.12-11.33,0.81
	c-5.62-0.45-10.92-2.78-15.92-5.39c-0.69-0.36-1.4-0.74-1.87-1.36c-1.39-1.79-0.17-4.42-0.65-6.64"/>
	<path id="line-求-2" class="st0" d="M34.1,964.44c-0.42-6.24,1.89-12.42,5.33-17.64c3.44-5.22,7.97-9.62,12.46-13.96
	c7.18-6.94,14.53-13.95,23.4-18.53c1.84-0.95,4.1-1.78,5.9-0.75c0.86,0.49,1.45,1.34,1.97,2.18c4.52,7.29,5.91,16.09,6.3,24.65
	s-0.12,17.19,1,25.7c0.43,3.26,1.11,6.49,1.58,9.75c0.67,4.62,0.93,9.3,1.11,13.97c0.78,20.09,0.09,40.25-2.07,60.24
	c-1.01,9.34-2.42,18.9-7,27.11c-15.71-6.12-28.08-20.2-32.14-36.56c-2.09-8.42-2.07-17.21-1.98-25.89
	c0.08-7.08,0.22-14.25,1.99-21.1c1.77-6.86,5.36-13.49,11.12-17.6"/>
	<path id="line-求-3" class="st0" d="M88.66,963.16c-18.79,23.77-37.57,47.54-56.36,71.31c-4.18,5.29-8.37,10.59-13.16,15.32"/>
	<path id="line-求-4" class="st0" d="M16.02,1059.99c2.26-3.99,6.6-6.24,10.66-8.38c10.61-5.6,20.86-11.93,30.29-19.34
	c6.68-5.25,12.95-11.04,18.71-17.29"/>
	<path id="line-求-5" class="st0" d="M134.89,976.98c1.76,9.24,2.75,18.7,1.85,28.07c-0.9,9.36-3.75,18.66-9.16,26.36
	c10.97-2.29,23.02-2.16,32.66,3.55c1.59,0.94,3.14,2.07,4.13,3.64c0.98,1.57,1.3,3.66,0.4,5.28c-0.69,1.23-1.96,2-3.17,2.73
	c-7.13,4.25-14.27,8.5-21.4,12.75"/>
	<path id="line-吾-1" class="st0" d="M55.24,1162.34c5.57-0.26,11.11-1.09,16.57-2.2c16.51-3.34,32.5-9.22,47.25-17.37
	c-2.39,8-8.93,13.93-13.86,20.67c-2.28,3.12-4.25,6.46-6.21,9.8c-2.08,3.53-4.15,7.07-6.23,10.6
	c-10.03,17.06-20.16,34.36-25.56,53.41"/>
	<path id="line-吾-2" class="st0" d="M66.08,1191.72c23.49,0.14,46.98,0.29,70.47,0.43c-0.19,1.14-1.08,2.02-1.93,2.81
	c-8.85,8.3-17.7,16.6-26.55,24.9c-4.6,4.31-9.19,8.62-13.79,12.93"/>
	<path id="line-吾-3" class="st0" d="M0,1247.89c17.56-0.18,35.1-1.32,52.53-3.41c28.74-3.44,57.19-9.47,86.07-11.45
	c14.12-0.97,28.94-0.83,41.57,5.57"/>
	<path id="line-吾-4" class="st0" d="M81.77,1231.8c-3.8,7.7-7.44,15.55-9.6,23.87c-4.64,17.89-1.96,37.58,7.3,53.58"/>
	<path id="line-吾-5" class="st0" d="M51.08,1266.67c26.29-2.21,52.48-5.76,78.42-10.61c-0.31,6.33-5.32,11.27-9.73,15.82
	c-5.28,5.44-10.15,11.27-14.57,17.43c-1.32,1.84-2.61,3.73-3.39,5.85"/>
	<path id="line-吾-6" class="st0" d="M90.88,1304.74c1.2-2.15,3.54-3.38,5.79-4.4c3.96-1.8,8.03-3.32,12.11-4.85
	c9.36-3.51,19.73-7.04,29.09-3.54"/>
	<path id="line-乐-1" class="st0" d="M76.59,1373.35c1.36,17.38-3.03,35.52-13.9,49.15c-4.93,6.18-11.12,11.42-15.07,18.26"/>
	<path id="line-乐-2" class="st0" d="M79.37,1405.77c-3.49,8.61-3.27,18.26-5.72,27.23c-1.15,4.2-2.87,8.22-4.68,12.18
	c-5.16,11.29-11.06,22.25-17.65,32.77c9.08-2.17,16.59-8.47,23.02-15.23c6.43-6.76,12.22-14.25,19.65-19.89"/>
	<path id="line-乐-3" class="st0" d="M116.21,1356.62c1.63,10.03-1.88,20.13-5.68,29.55s-8.04,19.05-7.94,29.21
	c0.03,3.01,0.44,6,0.8,8.99c1.01,8.46,1.59,16.97,1.73,25.48c0.15-0.82,0.3-1.63,0.46-2.45"/>
	<path id="line-乐-4" class="st0" d="M93.46,1403.71c10.33-1.84,20.66-3.69,30.99-5.53c0.5-0.09,1.03-0.18,1.5,0
	c0.61,0.23,0.98,0.83,1.26,1.42c1.4,2.88,1.7,6.17,1.83,9.37c0.66,16.26-2.49,32.41-5.63,48.38"/>
	<path id="line-乐-5" class="st0" d="M105.72,1426.9c5.77-4.57,12.4-8.06,19.44-10.24"/>
	<path id="line-乐-6" class="st0" d="M105.22,1443.71c1.12-1.05,2.5-1.78,3.87-2.49c1.48-0.77,2.96-1.55,4.44-2.32
	c4.17-2.18,8.37-4.37,12.91-5.62"/>
	<path id="line-乐-7" class="st0" d="M142.46,1379.27c3.86-3.25,8.4-5.69,13.23-7.14c2.52-0.76,5.56-1.13,7.53,0.62
	c1.45,1.29,1.86,3.39,1.87,5.33c0.04,6.42-3.32,12.34-6.95,17.63c-5.41,7.87-11.65,15.17-18.6,21.72c-0.4,0.38-0.9,0.79-1.45,0.67
	c-0.54-0.12-0.67-1.11-0.12-1.13"/>
	<path id="line-乐-8" class="st0" d="M161.75,1380.85c1.47,4.51,2.94,9.03,4.06,13.64c0.65,2.67,1.17,5.52,0.3,8.12
	c-0.62,1.85-1.89,3.39-2.95,5.02c-1.76,2.71-2.96,5.72-4.3,8.66c-5.35,11.76-12.93,22.5-22.2,31.5"/>
	<path id="line-乐-9" class="st0" d="M141.41,1427.08c5.59,0.34,11.19,0.67,16.78,1.01c3.95,0.24,8.97,1.39,9.54,5.31
	c0.46,3.14-2.43,5.66-5.03,7.47c-11.68,8.13-23.85,15.57-36.42,22.26c-5.23,2.78-10.52,5.44-15.81,8.09
	c-8.29,4.15-16.57,8.3-25.03,12.08c-9.78,4.37-19.78,8.23-29.77,12.08c-12.17,4.68-24.35,9.35-36.83,13.14
	c-4.97,1.51-10.45,2.85-15.21,0.79c0.15-2.58,1.29-5.1,3.12-6.92"/>
	<path id="line-乐-10" class="st0" d="M90.56,1468.56c32.45,2.61,65.06,1.76,97.6,0.91"/>
	<path id="line-乐-11" class="st0" d="M108.77,1464.24c2.05,11.14,4.11,22.55,2.3,33.74c-0.48,2.97-1.23,5.9-2.02,8.8
	c-2.11,7.83-4.48,15.58-7.09,23.26c-5-4.5-9.99-8.99-14.99-13.49c-1.66-1.49-3.44-3.24-3.51-5.46c-2.75,1.67-5.5,3.34-8.26,5.02
	c-2.07,1.26-4.17,2.53-6.49,3.26c-2.32,0.72-4.91,0.86-7.12-0.15s-3.91-3.3-3.74-5.72c0.17-2.42,2.57-4.59,4.94-4.11"/>
	<path id="line-乐-12" class="st0" d="M141.95,1499.47c6.07,0.48,12.07,1.73,17.83,3.7c1.58,0.54,3.45,1.6,3.27,3.26
	c-0.1,0.94-0.86,1.66-1.6,2.24c-2.84,2.23-6.15,3.85-9.66,4.71c-1.93,0.47-3.93,0.73-5.77,1.49c-3.19,1.32-5.99,4.17-9.43,3.88"/>


	<defs>
		<path id="乐-12" d="M165.13,1499.79c-2.65-0.96-5.16-2.36-7.94-2.92c-2.5-0.22-5.01-0.12-7.51-0.15c-2.48-0.08-4.79,1.48-7.28,0.88
	c-1.98-0.4-3.99-0.14-5.89,0.49c1.4,4.7,6.92,5.63,9.56,9.25c1.03,1.2-0.19,2.43-0.89,3.41c-2.24,3.4-6.57,4.12-9.79,6.24
	c-1.06,0.72-0.96,2.15-1.3,3.25c4.14,0.08,8.28,0.31,12.41,0.68c1.86,0.28,3.49-0.78,5.07-1.58c0.79,0.27,1.56,0.6,2.39,0.73
	c1.26-0.57,2.31-1.53,3.58-2.08c2.41-0.83,4.99-0.76,7.5-0.88c3.01,0.03,5.04-2.62,6.83-4.7c0.52-2.04,0.04-4.18-0.33-6.21
	C171.04,1502.96,167.98,1500.91,165.13,1499.79z"/>
		<path id="乐-11" d="M74.19,1526.78c-1.09-0.01-0.92-1.75,0.09-1.74C75.34,1525.04,75.18,1526.81,74.19,1526.78z M104.66,1483.56
	c1.49,2.12,0.68,4.95,0.88,7.38c0.19,6.08,0.03,12.35-2.38,18.03c-0.84,1.85-0.98,4.41-3.03,5.4c-3.82,0.81-7.89,0.22-11.37-1.54
	c-1.87-0.61-2.2-2.77-3.03-4.3c-2.11,0.89-4.38,0.73-6.59,0.39c-0.44,0.81-0.81,1.66-1.36,2.4c-1.99,0.77-4.18,0.78-6.25,1.22
	c-2.85,0.33-5.95,1.35-8.64-0.19c1.57-1.61,3.73-2.79,4.44-5.05c-2.79-0.43-5.64-0.81-8.46-0.4c-0.84,0.07-1.63,0.49-2.12,1.19
	c-2.28,3.03-3,7.1-2.2,10.77c0.92,2.12,2.78,3.64,4.46,5.15c1.72,1.33,3.46,2.79,5.56,3.44c7.32-2.64,11.33-10.28,18.69-12.95
	c0.86,3.07,2.92,5.53,4.63,8.14c1.14,1.63,2.87,2.68,4.29,4.03c1.68,1.57,2.39,3.96,4.36,5.24c1.39,0.94,2.83,1.92,4.48,2.34
	c3.1-0.09,5.98-1.67,8.06-3.92c2.32-3.6,2.99-7.95,4.84-11.78c1.8-3.76,2.2-7.96,3.32-11.94c0.61-4.34,0.04-8.74,0.3-13.11
	c0.2-3.37-0.09-6.87,0.55-10.2C113.66,1484.22,109,1484.34,104.66,1483.56z"/>
		<path id="乐-10" d="M183.28,1461.15c-2.76-0.8-5.72-0.24-8.42,0.59c-2.62,0.84-5.41,0.85-8.08,1.46c-2.72,0.44-5.34,1.51-8.13,1.5
	c-3.07,0.06-6.13,0.35-9.18,0.67c-4.31,0.22-8.36,1.89-12.61,2.5c-2.96,0.38-6.14,1.31-8.99-0.06c0.03-0.26,0.1-0.76,0.14-1.02
	c2.28-2.09,5.63-0.91,8.27-2c2.01-1.2,4-2.46,6.08-3.53c-3.46-1.25-7.15-2.14-10.54-3.81c-0.47,0.25-0.95,0.5-1.43,0.74
	c-1.9,2.34-5.63,3.47-7.8,5.64c-2.25,0.75-3.93-0.75-5.9-2.39c-1.88-0.34-3.79-0.52-5.69-0.25c-2.81,0.33-5.95-0.4-8.45,1.2
	c-1.77,1.7-3.28,3.69-4.49,5.83c-1.31,2.25,2.58,5.22-0.05,6.87c-2.05,0.69-4.1,1.4-6.14,2.12c2.1,2.19,4.73,3.82,7.66,4.95
	c1.79-0.03,3.58,0.37,5.08,1.34c0.02,0.02,0.02,0.05,0.04,0.07c4.34,0.78,9,0.66,13.43-0.25c0.18-0.92,0.41-1.84,0.76-2.73
	c1.13-1.91,2.2-4.54,4.69-4.86c2.09-0.26,4.2-0.46,6.3-0.54c3.3-0.03,5.62,2.94,8.89,3.07c3.69,0.79,7.52-0.36,11.12,1.03
	c4.99,0.82,10.12,0.77,15.17,0.65c4.47-0.05,8.9,1.26,13.38,0.53c3.06-0.52,6.37-0.58,9.11-2.21c2.02-1.13,2.66-3.6,2.68-5.77
	C190.17,1467.79,186.63,1464.02,183.28,1461.15z"/>
		<path id="乐-9" d="M23.31,1505.31c0.53,2.12,0.7,4.61-0.45,6.56c-2.6,1.19-5.55,1.52-8.12,2.87c-3.08,1.66-6.82,1.46-10.03,0.28
	c-2.36-1.48-2.92-4.52-3.28-7.08c-0.34-1.29,0.58-2.37,1.12-3.45c0.75-1.22,1.27-2.57,2.14-3.71c1.75-1.57,4.12-2.09,6.3-2.8
	c-0.66,2.25-1.47,4.45-2.21,6.68c2.4,0.51,4.86,1.18,7.31,0.56C18.47,1505.03,21.11,1503.82,23.31,1505.31z M179.39,1426.67
	c-5.95-3.61-13.15-2.98-19.8-3.75c0.03-0.06,0.06-0.12,0.1-0.18c-6.32,5.63-10.89,12.93-12.16,21.11c1.93-2.11,4.4-3.64,6.58-5.48
	c2.5-1.81,5.02-3.77,8.04-4.61c-1.45,2.85-3.55,5.3-6.13,7.19c-2.56,3.13-5.69,5.89-9.62,7.12c0-0.02,0-0.03,0-0.05l-2.84,2.64
	c0.18-0.01,0.36-0.02,0.53-0.02c-1.79,1.57-3.79,2.89-6.01,3.74c-2.92,1.11-5.56,2.82-8.38,4.13c0-0.08,0.02-0.15,0.02-0.23
	c-9.76,6.71-20.26,10.56-30.81,15.61c-0.09,0.44-0.34,0.84-0.89,1.18c-6.94,2.34-13.83,4.84-20.65,7.53
	c-6.08,1.85-11.74,4.86-17.89,6.51c-2.05,0.55-3.8,1.89-5.88,2.34c-2.13,0.57-4.52,0.61-6.34,2c-1.38,1.06-2.82,2.07-4.51,2.55
	c-3.72,1.13-7.24,2.81-11.03,3.74c-2.44,0.67-4.7,2.53-4.93,5.2c0.56,1.47,1.64,2.64,2.61,3.85c3.39-0.65,6.92-0.65,10.2-1.82
	c1.48-0.56,2.61-1.75,4.08-2.3c1.22-0.17,2.48,0,3.7-0.24c1.87-0.77,3.04-2.76,5.1-3.15c1.61-0.38,3.16-1,4.63-1.77
	c3-1.59,6.48-2.17,9.24-4.23c2.05-1.57,4.66-1.91,7.08-2.55c1.56-0.36,2.64-1.62,3.9-2.5c2.23-1.67,5.2-1.78,7.51-3.33
	c3.53-2.3,7.72-3.06,11.68-4.29c0.84-0.25,1.72-0.39,2.6-0.44c9.05-6.25,20.21-8.75,28.83-15c0.02-0.15,0.04-0.29,0.06-0.4
	c2.28-2.09,5.63-0.91,8.27-2c2.56-1.53,5.08-3.16,7.82-4.38c3.01-1.31,5.32-3.83,8.4-5.03c3.08-1.14,5.63-3.28,8.26-5.2
	c2.11-1.64,5.06-1.36,7.21-2.94c1.23-0.9,2.46-1.85,3.44-3.02c1.17-1.63,1.9-3.56,3.35-4.98c1.48-1.6,3.56-2.42,5.2-3.81
	c1.22-1.6,2.43-3.32,3.02-5.26C182.67,1428.38,180.73,1427.59,179.39,1426.67z"/>
		<path id="乐-8" d="M131.26,1452.26c0.78-1.86,1.75-3.66,2.68-5.43c0.35,0.01,1.04,0.01,1.4,0.01c0.68,1.26,1.2,2.73,2.39,3.62
	c1.77,1.12,3.88,0.3,5.84,0.2l2.84-2.64c0.12-1.12-0.03-2.33,0.46-3.38c0.21-0.27,0.44-0.53,0.67-0.78
	c1.27-8.18,5.84-15.48,12.16-21.11c2.92-5.56,5.89-11.09,8.88-16.6c3.24-4.03,3.61-9.49,3.55-14.45c0.11-2.07-1.7-3.4-2.53-5.12
	c0.01-0.08,0.02-0.15,0.03-0.23c-4.37,7.2-8.1,15.02-14.02,20.68c-0.52,2.61-1.79,4.98-3.36,7.11c-1.82,2.35-2.56,5.36-4.6,7.56
	c-1.93,2.12-3.26,4.8-5.57,6.57c-2.08,1.23-4.26,2.28-6.27,3.65c0-0.06-0.01-0.13-0.01-0.19c-0.85,3.85-1.82,7.15-3.46,10.44
	c-0.98-0.98-2.94,0.93-2.99-0.92l-1.12,0.33C127.51,1445.51,128.52,1449.81,131.26,1452.26z"/>
		<path id="乐-7" d="M169.62,1386.34c0.41-3.59,3.31-6.69,2.33-10.44c-0.27-3.23-2.11-6.41-5.12-7.74c-3.7-0.64-7.39,0.8-10.48,2.74
	c-3.37,2.05-6.12,5.29-10.18,5.99c1,1.21,2.32,2.06,3.8,2.57c1.02-0.83,2.02-1.88,3.42-1.95c2.4-0.28,4.76-0.84,7.17-1.06
	c1.4-0.21,2.35,1.2,2.46,2.44c-2.01,5.11-5.71,9.28-8.28,14.1c-1.16,2.43-4.18,2.57-6.1,4.11c-3.31,3.32-7.34,5.77-11.19,8.4
	c-0.77-0.59-1.57-1.13-2.23-1.84c-0.17-0.31-0.31-0.64-0.44-0.97c0.8,6.32,1.49,12.19,1.54,18.67c0.1-0.36,0.19-0.71,0.32-1.06
	c2.04-0.59,4.32,0.81,6.31-0.06c1.73-1.27,3.54-2.46,5.22-3.8c1.32-1.52,1.83-3.59,3.18-5.11c1.38-1.54,2.77-3.07,4.28-4.49
	c-0.01,0.05-0.03,0.11-0.04,0.16C161.51,1401.37,165.25,1393.54,169.62,1386.34z"/>
		<path id="乐-6" d="M120.42,1429.53c-0.48,1.38-1.62,2.26-3.01,2.68c0.23-0.72,0.61-1.33,1.1-1.82l-9.26,4.21
	c0.03,4.61,0.12,9.2-0.26,13.7c2.43-1.71,4.72-4.02,7.98-3.59c0,0.05,0,0.09,0,0.14l9.06-2.65c1.57-4.94,1.98-10.41,1.33-15.82
	L120.42,1429.53z"/>
		<path id="乐-5" d="M120.5,1429.26c-0.03,0.1-0.07,0.2-0.1,0.3l6.94-3.15c-0.7-5.73-2.59-11.39-5.6-16.27
	c-0.51,0.34-1.01,0.69-1.57,0.94c-1.72-0.29-3.33-1.06-5.06-1.3c-0.92,0.23-1.76,0.71-2.61,1.12c-3.17,7.75-3.32,15.77-3.27,23.72
	l9.26-4.21C119.03,1429.88,119.71,1429.48,120.5,1429.26z"/>
		<path id="乐-4" d="M136.59,1420.41c-0.01-5.98-0.14-11.33-1.67-17.32c-0.69-1.59-0.89-3.42-2.05-4.78c-1.89-2.2-4.19-4.15-6.9-5.27
	c-2.49-1.02-5.2-1.26-7.84-1.59c0.04-0.35,0.12-0.69,0.2-1.03c-1.16,0.46-2.34,0.93-3.73,1.39c-3.27,2.18-5.95,5.25-8.85,8.24
	c0.38,2.97,1.58,6.81,4.67,7.6c-0.17-0.37-0.32-0.76-0.43-1.15c0.51-2.68,3.62-2.87,5.52-4.18c1.22-0.54,2.32-2.01,3.77-1.47
	c1.19,1.54,1.86,3.4,2.82,5.08c-0.36,0.73-0.72,1.46-1.09,2.2c0.42,0.54,0.84,1.09,1.27,1.64c-0.41,0.27-0.82,0.55-1.23,0.81
	c3.82,11.63,1.1,23.88-4.08,35.39c0.11,5.17,0.03,10.34,0.05,15.52c-0.11-0.02-0.22-0.04-0.33-0.06c1.97,1.64,3.65,3.13,5.9,2.39
	c2.17-2.17,5.89-3.3,7.8-5.64c-0.24,0.12-0.47,0.23-0.71,0.34c0.19-4.24,2.29-8.01,4.22-11.68c0.03,0,0.06,0,0.09,0
	c1.02-4.98,1.07-9.96,1.8-14.93c0,0-0.01,0.01-0.01,0.01C135.57,1428.07,135.33,1424.1,136.59,1420.41z"/>
		<path id="乐-3" d="M112.51,1410.88c-0.07,0.03-0.14,0.07-0.21,0.1c-0.83-1.46-1.83-2.85-2.3-4.49c0.07-0.35,0.18-0.66,0.33-0.93
	c-1.66-5.42,2.97-10.75,7.86-14.11c-0.01,0-0.03,0-0.04-0.01c0.49-4.04,3.19-7.3,5.18-10.7c1.06-1.88,3.41-3.65,2.5-6.05
	c-1.11-2.64-2.53-5.15-3.99-7.6c-3.31-3.66-9.92-5.38-13.81-1.7c-1.43,2.31-0.17,5.16,0.05,7.66c-1.01,1.96-2.66,3.56-3.41,5.67
	c-0.62,1.79-1.8,3.26-3.19,4.53c-1.92,1.69-2.11,4.4-2.87,6.69c-0.71,3-2.35,5.97-1.64,9.13c0.55,2.81,1.06,5.63,1.77,8.41
	c0.72,2.49-0.42,4.97-0.67,7.44c-0.44,5.21-2.79,10.02-3.33,15.22c-0.28,3.13-1.04,6.27-2.63,9c-0.17,0.19-0.34,0.36-0.52,0.54
	c1.71-0.46,3.36-0.69,5.06-0.6c-0.06-0.62-0.16-1.26-0.33-1.93c0,0-1,0-2,0c1,0,2,0,2,0c0.17,0.67,0.27,1.31,0.33,1.93
	c1.5,0.08,3.03,0.41,4.67,1.07c-1.64-0.66-3.18-0.98-4.67-1.07c0.22,2.3-0.27,4.27-1.22,6.17c0.01,0,0.02-0.01,0.03-0.01
	c1.01,3.92,4.67,6.23,6.84,9.47c2.09-1.43,4.1-2.96,6.23-4.33c0.13-0.68,0.26-1.36,0.39-2.04c0.02-0.01,0.04-0.03,0.06-0.04
	C110.03,1436.04,107.51,1423.13,112.51,1410.88z"/>
		<path id="乐-2" d="M96.67,1439.08c-1.7-0.09-3.35,0.14-5.06,0.6c-2.26,2.3-5.06,4.03-7.16,6.5c-2.8,3.25-6.78,5.11-9.77,8.15
	c-1.69,1.68-3.79,2.84-5.88,3.96c1.15-4.55,3.74-8.52,5.33-12.92c2.13-3.91,3-8.32,4.83-12.35c1.11-3.99,1.34-8.18,2.6-12.15
	c0.99-4.14-2.39-7.48-5.6-9.46c-0.09-0.59-0.09-1.17-0.06-1.74l-6.55,12.9c0.96,0.15,1.91,0.38,2.86,0.58
	c0.13,2.1,0.39,4.2,0.29,6.3c-0.62,3.05-2.04,5.85-3.11,8.76c-2.46,6.59-6.84,12.21-11.14,17.67c-3.85,3.01-7.58,6.64-8.94,11.48
	c-0.29,2.72-0.23,5.47-0.08,8.2c0.05,2,1.84,3.25,3.19,4.45c2.02,1.96,4.9,2.49,7.56,3.05c3.56-2.04,7.17-4.17,10-7.19
	c2.53-4.62,4.77-10.01,9.66-12.63c0.29-1.18,0.24-2.53,1.1-3.48c2.77-3.4,6.14-6.27,8.77-9.79c1.58-1.98,3.17-4.37,5.9-4.72
	C96.4,1443.36,96.88,1441.38,96.67,1439.08z"/>
		<path id="乐-1" d="M78.44,1402.4c1.11-2.23,1.34-4.82,2.73-6.92c0.82-1.25,1.49-2.68,1.16-4.22c-0.4-2.37-0.19-4.92-1.2-7.14
	c-2.76-2.32-6.98-2.2-9.48-4.99c-0.31,0.67-0.62,1.34-0.93,2c-2.04,0.71-3.87,1.86-5.56,3.18c2.48,1.29,3.52,4.04,3.21,6.73
	c-0.59,3.67-1.28,7.43-3.53,10.49c-2.02,5.85-5.74,10.84-8.81,16.16c-1.29,2.91-5.66,2.39-6.74,5.45
	c-1.25,4.19-3.53,8.21-3.26,12.72c-0.51,3.45,1.21,6.91,4.1,8.8c2.06,0.84,4.03-0.29,5.2-1.98c0.4,0.01,0.79,0.03,1.19,0.04
	c2.42-3.19,5.65-5.8,7.35-9.5c1.71-3.6,4.17-6.84,5.3-10.71c0.07,0.01,0.13,0.03,0.19,0.04l6.55-12.9
	C76.08,1407.1,77.34,1404.7,78.44,1402.4z"/>
		<path id="吾-6" d="M106.67,1277.43c0.81,0.03,1.5,0.3,1.97,1.24C108.17,1277.73,107.48,1277.46,106.67,1277.43
	c-0.6,0.39-1.16,0.83-1.64,1.39c-2.59,2.84-5.83,4.92-8.85,7.24c-0.79,0.72-1.96,1.42-1.92,2.63c-0.17,3.72,0.33,7.44-0.08,11.16
	c1.22,0.84,2.34,1.93,3.76,2.4c2.58-0.01,5.13-0.72,7.45-1.82c1.84-0.88,3.94-0.58,5.91-0.62c3.57,0.14,7.07-0.68,10.55-1.34
	c6.31-0.56,12.97-0.33,18.77-3.23c-0.26-1.1-0.12-2.41-0.96-3.27c-2.43-2.75-5.13-5.52-8.71-6.69c-3.19-1.38-6.98,0.15-10-1.67
	c-0.32-0.99,0.21-1.91,0.93-2.56c1.28-1.18,2.62-2.29,3.98-3.37c-5.6-0.53-11.11-1.06-16.81-1.59
	C108.24,1276.52,107.43,1276.93,106.67,1277.43z"/>
		<path id="吾-5" d="M145.95,1255.59c-2.76-3.11-6.44-5.2-9.96-7.34c-3.5-2.18-7.78-1.59-11.66-2.45c-2.48-0.68-4.7,0.98-6.69,2.21
	c-3.05,2.13-6.76,2.88-10.28,3.85c-3.15,0.86-5.71,3.12-8.9,3.86c-3.32,0.73-6.12,3.07-9.59,3.22c-2.89,0.19-5.52,1.56-8.37,1.94
	c-2.31,0.38-4.35-0.96-6.32-1.95c-0.79,2.25-0.85,4.27-0.17,6.49c0-0.06-0.01-0.13-0.02-0.19c1.09-0.25,2.19-0.77,3.33-0.5
	c3.94,0.76,7.94,1.27,11.86,2.16c2.49,0.26,5.01-0.22,7.51,0.18c2.96,0.44,4.92-2.43,7.62-3.07c1.71-0.01,3.26,0.87,4.95,1.03
	c1.62,0.1,3.24-0.1,4.85-0.29c0.06,1.06,0.41,2.2-0.17,3.18c-1.29,2.55-2.29,5.28-3.93,7.64c-1.7,1.05-3.64,1.76-4.99,3.3
	c-2.59,2.84-5.83,4.92-8.85,7.24c-0.79,0.72-1.96,1.42-1.92,2.63c-0.17,3.57,0.28,7.14-0.05,10.71
	c11.74,0.87,18.52-9.76,26.93-17.43c0.19-0.34,0.44-0.66,0.74-0.92c6.06-5.57,13.16-9.82,19.55-15c1.96-1.69,4.53-3.08,5.21-5.77
	C147.34,1258.71,147.14,1256.86,145.95,1255.59z"/>
		<path id="吾-4" d="M74.18,1258.92c-0.03-0.01-0.06-0.03-0.09-0.05c0.83-3.11,0.59-6.5,2.11-9.41c0.74-1.63,1.38-3.31,2-4.99
	c0.78-0.3,1.55-0.64,2.31-0.98c-0.16-0.21-0.32-0.41-0.48-0.57c-2.36-1.57-4.72-0.05-7.08,1.64c0.19,0.11,0.37,0.24,0.55,0.38
	c-0.1,1.13-1.17,1.7-1.87,2.45c-2.99,2.71-4.42,6.62-5.56,10.38c-0.63,5.2,0.4,10.9-2.4,15.62c-1.19,1.88-0.08,3.99,0.24,5.94
	c0.96,3.79,1.36,7.86,3.67,11.16c1.42,2.09-0.25,4.9,1.22,6.98c1.14,1.82,2.28,3.67,2.98,5.71c0.82,2.64,2.5,4.97,4.61,6.73
	c1.54,0.36,3.14,0.1,4.71,0.02c0.26-2.09,0.05-4.19-0.03-6.28c-0.09-1.86,1.02-3.77-0.03-5.52c-1.47-3.16-1.92-6.64-2.37-10.07
	c-0.4-3.15-1.82-6.05-2.25-9.2c-0.76-4.49-2.08-8.9-2.39-13.46C73.33,1263.19,73.39,1261.17,74.18,1258.92z"/>
		<path id="吾-3" d="M183.56,1242.78c-1.11,2.58-3.49,4.44-5.99,5.59c-2.01,0.26-4.09,0.22-6.09-0.13c-2.45-0.97-4.55-2.71-7.14-3.39
	c-3.61-0.93-6.37-3.62-9.76-5.02c-3.18-0.43-6.48,1.68-9.54,0.06c-3.23-1.55-6.87-1.85-10.18-3.16c-2.52-0.89-5.22-1.76-7.91-1.17
	c-2.8,0.82-5.69,1.43-8.61,1.5c-1.95-0.04-4.31-1.55-3.91-3.74c-0.08-1.62,1.63-2.41,2.55-3.48c0.29,0.68,0.6,1.37,0.89,2.05
	c7-3.55,15.02-3.99,22.71-4.54c2.59-0.42,5.21-0.65,7.82-0.36c3.11-0.4,6.21-0.98,9.35-1.13c1.94,1.13,4.23,0.99,6.36,1.39
	c2.78,0.43,5.08,2.17,7.63,3.24c2.21,1.18,4.82,1.72,6.61,3.59C180.83,1236.37,183.62,1239.11,183.56,1242.78z M89.75,1239.33
	c4.41-0.87,8.93-1.31,13.2-2.79c2.36-0.81,4.87-0.18,7.3-0.19c0.11-0.37,0.33-1.1,0.45-1.47c-1.23-0.39-2.43-0.86-3.69-1.15
	c-2.38-0.55-4.81,0.36-7.2-0.1c-1.5-0.19-2.78-1.06-4.1-1.73c0.13-0.2,0.28-0.39,0.42-0.58l-4.74,0.76
	c-2.4,1.53-5.45,0.99-8.01,2.15c-2.78,1.29-5.84,1.63-8.86,1.73c0.01-0.4,0.06-0.79,0.11-1.18l-13.37,2.15
	c0.03,0.07,0.07,0.14,0.1,0.21c-0.93,1.7-2.94,3.34-4.99,2.73c-3.41-0.6-7.05-0.85-10.35,0.4c-1.23,0.45-2.53,0.56-3.83,0.58
	c-4.6-0.08-9.18,2.11-13.72,0.45c-3.58,2.85-8.53,2.02-12.74,1.47c-1.86-0.08-3.54-0.9-5.13-1.8c-0.9,0.89-1.79,1.78-2.68,2.68
	c2.48,2.09,5.78,3.44,7.3,6.46c2.64,1.08,5.08,3.13,8.09,2.87c2.28-0.08,4.61,0.35,6.83-0.33c1.8-0.44,3.53-1.48,5.45-1.19
	c3.28,0.72,6.34-1.56,9.63-0.52c1.24-0.74,2.56-1.36,3.99-1.63c3.51-0.67,6.59-2.93,10.23-2.97c2.17,0.01,4.09-0.99,6-1.87
	c2.58-0.53,5.61-1.37,7.91,0.38c1.63-0.26,3.26-0.27,4.89-0.38C82.15,1242.92,85.81,1240.79,89.75,1239.33z"/>
		<path id="吾-2" d="M148.77,1191.27c-1.97-2.46-4.53-4.39-6.94-6.42c-2.17-1.07-4.59-1.6-6.66-2.93c-3.65-2.24-8.05-1.2-12.02-0.73
	c-2.55,0.24-4.72,1.67-7.08,2.46c-5.13,1.09-10.14,3.08-15.48,2.78c-0.85-0.32-1.35-1.1-1.87-1.83c-2.33,3.29-2.57,8.06-4.16,11.8
	c0.08-0.03,0.16-0.08,0.24-0.11c4.52-0.61,9.13,0.36,13.64-0.49c2.82-0.66,5.74-0.7,8.62-0.87c1.48-0.1,3.34,0.4,3.72,2.04
	c0.04,1.58-0.4,3.15-0.9,4.64c-0.81,1.27-2.01,2.23-2.96,3.39c-1.22,1.45-1.57,3.44-2.92,4.8c-2.83,2.52-5.8,4.86-8.79,7.17
	c-2.09,2.41-4.97,4.01-6.82,6.64c-1.29,1.86-3.57,2.82-4.56,4.91c-0.69,1.14-1.07,2.57-2.2,3.37c-0.38,0.92-0.97,1.76-1.57,2.95
	c0.2,0.35,0.5,0.71,0.97,1.06c0.89,0.89,2.56-2.95,5.03-4.52c2.12-3,5.35-4.89,8.38-6.84c1.02-0.65,2.21-0.92,3.36-1.26
	c0.45-0.77,0.9-1.55,1.34-2.32c1.04-0.44,2.11-0.85,3.07-1.46c4.26-2.91,8.86-5.23,13.28-7.87c2.48-1.5,4.36-3.77,6.77-5.38
	c2.26-1.57,4.36-3.35,6.66-4.88c2.14-1.44,4.69-2.09,6.91-3.4C148.12,1196.69,149.07,1193.79,148.77,1191.27z"/>
		<path id="吾-1" d="M63.81,1240.92c3.72,0.93,9.16-0.74,10.71-4.99c0.13-3.76,2.22-7.09,2.85-10.77c0.51-4.11,3.39-7.29,4.65-11.14
	c1.24-4.24,5.96-6.34,6.89-10.75c0.61-3.08,2.77-5.7,5.66-6.87c1.59-3.74,1.84-8.51,4.16-11.8c-0.47-0.66-0.96-1.28-1.75-1.53
	c-1.31-0.45-2.69-0.6-4.04-0.87c1.98-2.11,4.88-2.48,7.48-3.37c1.37-1.43,2.1-3.33,3.38-4.83c2.44-2.91,5.15-5.61,7.09-8.89
	c1.69-2.93,4.29-5.16,6.54-7.64c3.02-3.21,7.44-4.82,10.04-8.45c1.24-1.63,1.2-3.76,1.14-5.7c-0.1-0.92,0.03-2.05-0.84-2.64
	c-2.05-1.47-4.65-1.8-7-2.62c-2.25-0.78-4.58,0.1-6.82,0.48c-2.46,0.54-5,0.48-7.45,0.99c-1.53,1-2.56,2.61-4.12,3.56
	c-1.86,0.72-3.96,0.5-5.8,1.29c-1.56,0.68-2.73,1.96-4.16,2.84c-1.28,0.41-2.64,0.37-3.96,0.5c-0.82,0.91-1.5,1.98-2.5,2.69
	c-3.74,1.64-7.8,2.53-11.37,4.54c-2.37,1.51-5.29,0.74-7.92,0.63c0.84,0.67,1.68,1.32,2.55,1.96c0.04,0.17,0.12,0.51,0.15,0.67
	c3.71,0.27,6.8,2.32,10.03,3.9c2.01-0.13,3.85-1.23,5.86-1.52c1.98-0.28,3.82-1.06,5.63-1.89c1.24,0.51,2.16,1.54,3.19,2.36
	c-1.12,2.47-2.55,4.79-3.64,7.27c-0.84,2.16,0.65,4.26,1.37,6.22c-1.95,2.28-4.82,3.32-7.12,5.14c-1.39,1.78-1.05,4.26-1.81,6.29
	c-0.51,1.26-1.16,2.46-1.65,3.72c-2.52,1.45-5.09,2.82-7.49,4.47c1.16,1.24,2.03,2.81,2.09,4.54c-0.78,2.03-1.91,3.9-2.87,5.86
	c-1.88,3.64-5.43,6.36-6.37,10.46c-0.4,1.98-2.17,3.23-3,5c-0.77,1.32-0.88,3.17-2.37,3.96c-1.13,0.83-2.88,1.35-3,3
	c-0.11,3.42,1.48,6.59,2.91,9.63c-0.19-0.86-0.29-1.78-0.29-2.7c0,0.92,0.11,1.83,0.29,2.7c0.08,0.18,0.17,0.35,0.25,0.53
	c-0.03,0.05-0.06,0.09-0.09,0.14C61.74,1238.94,62.58,1240.31,63.81,1240.92z"/>
		<path id="求-5" d="M133.93,984.86c4.02,0.4,5.47,4.65,8.35,6.84c1.78,1.23,1.32,3.69,2.28,5.41c1.23,2.34,2.09,4.92,1.97,7.6
	c-0.09,3.83,0.18,7.67-0.14,11.5c-0.86,3.17-2.71,6.14-2.61,9.55c0.82,1.99,3.14,2.57,5.06,2.89c7,0.92,13.5,3.83,20.13,6.09
	c2.44,1.8,4.37,4.21,6.18,6.63c1.77,1.95-0.17,4.49-0.97,6.44c-1.94,4.18-6.86,5.03-10.74,6.5c-8.56,2.59-17.2,4.91-25.71,7.65
	c-1.29,0.49-2.6,1.06-4.01,1.01c-0.05-0.78-0.02-1.56,0.1-2.33c1.29-1.43,3.38-1.68,4.79-2.97c2.52-2.18,5.05-4.36,7.49-6.64
	c2.06-1.93,4.47-3.62,5.93-6.09c-0.08-1.36-0.73-3.12-2.27-3.3c-5.58-1.15-11.37,0.24-16.96-0.89c-2.81-0.84-6.04-1-8.22-3.21
	c-3.17-3.01-5.9-7.14-5.6-11.69c0.12-4.36,0.13-9.32,3.3-12.7c3.12-3.57,5.14-7.9,6.97-12.23c1.13-2.74,2.85-5.35,2.92-8.4
	C132.56,989.94,133.76,987.52,133.93,984.86z"/>
		<path id="求-4" d="M54.86,1040.74c-0.33-0.97-0.07-2.11,0.55-2.91c6.29-4.7,12.54-9.71,17.22-16.12c1.61-2.22,3.51-4.24,5.03-6.53
	c0.67-0.9,0.44-2.21-0.48-2.84c-2.65,0-4.38,2.27-6.09,3.96c-1.86,2.04-4.43,3.21-6.37,5.15c-2.45,2.24-4.49,5.05-7.46,6.65
	c-1.2,0.29-2.7,0.58-3.78-0.18c-0.02-0.57-0.08-1.17-0.14-1.78l-4.9,4.81c0.25,0.22,0.48,0.46,0.67,0.71
	c-1.61,3.25-4.58,5.56-7.39,7.74c-1.86,1.25-3.65,3.02-6.03,3.06c0.01-0.25,0.04-0.5,0.07-0.74l-16.25,11.61
	c1.67,2.77,3.37,5.75,6.69,6.52c5.21-0.11,9.02-4.11,12.76-7.21c2.68-2,4.67-4.73,7.26-6.8c1.34-1.09,3.17-1.03,4.79-0.87
	c0.03,0.39,0.05,0.78,0.06,1.17c1.59-1.07,3.04-2.29,4.42-3.58C55.27,1041.97,55.05,1041.36,54.86,1040.74z"/>
		<path id="求-3" d="M40.61,1035.12c1.72-1.5,3.22-3.27,5.04-4.67c0.99-0.56,2.01-0.16,2.79,0.52l4.9-4.81
	c-0.27-2.5-0.63-5.26,1.41-6.96c1.59-1.45,2.2-3.76,4.12-4.87c2.92-1.95,4.84-4.96,7.21-7.47c2.25-1.58,4.49-3.3,5.63-5.89
	c1.06-2.66,3.92-3.88,5.18-6.4c1.08-2.04,2.85-3.58,4.06-5.52c0.42-2.71,0.23-5.48,0.44-8.22c0.21-1.9-1.18-3.42-2.6-4.46
	c-1.46-0.97-3.44-1-4.59-2.44c-1.4-1.87-3.9-1.7-5.95-2.14c0.04-0.02,0.08-0.04,0.12-0.06c-0.63,0-1.26,0-1.87,0
	c0.02,0.02,0.05,0.03,0.07,0.04c-2.25,0.57-4.71,0.9-6.58,2.39c0.9,1.91,1.7,3.87,2.68,5.73c1.14-0.44,2.43-0.48,2.99,0.69
	c0.85,2.46-0.63,4.74-1.59,6.91c-1.28,3.17-3.61,5.74-5.89,8.23c-1.22,1.41-2.46,3.14-4.51,3.29c-0.02-1.2,0.05-2.41,0.16-3.61
	c-1.24,0.83-2.63,1.42-4.02,2.02c0.04,1.85,0.18,3.72-0.51,5.47c-0.8,1.9-0.59,4-1.06,5.97c-1.29,2.25-3.38,3.87-5.26,5.59
	c-2.65,2.3-4.32,5.47-6.94,7.8c-6.4,6.62-13.66,12.46-19.18,19.88c-2.16,3-0.19,6.68,1.48,9.39c0.4,0.58,0.78,1.21,1.16,1.84
	l16.25-11.61C36.21,1038.96,38.59,1036.93,40.61,1035.12z"/>
		<path id="求-2" d="M101.53,1009.2c0.24-3.08-1.58-5.86-1.27-8.94c0.27-3.21-0.4-6.38-0.43-9.57c0.3-3.43-0.19-6.85-0.1-10.28
	c0.08-4.56-1.43-8.93-1.93-13.41c-0.28-2.25,1.97-3.61,3.44-4.9c2.59-1.53,5.73-1.81,8.5-2.91c-2.43-3.52-4.39-7.25-5.35-11.4
	c-1.91,1.54-4.11,2.78-5.91,4.47c-0.67-0.38-1.32-0.83-1.78-1.45c-0.71-5.31,0.32-10.69-0.5-15.99c-0.55-3.97-0.69-7.97-0.36-11.97
	c-0.44-5.98-2.77-11.65-5.44-16.96c-1.29-2.28-4.19-2.66-6.54-2.12c-2.89,0.67-5.94,1.3-8.37,3.12c-3.14,2.29-6.76,3.81-9.84,6.19
	c-3.11,2.35-7.29,3.03-9.92,6.05c-2.24,2.44-4.9,4.48-6.98,7.07c-1.7,2.13-4.03,3.72-5.4,6.12c-1.51,2.51-3.61,4.68-4.7,7.43
	c-1.43,4.27-3.9,8.13-4.8,12.58c-1.09,2.64-0.41,5.61,1.09,7.96c2.84-0.8,5.64-2.01,8.29-3.53c-1.12-1.84-1.64-4-0.96-6.19
	c2.89-2.94,6.42-5.16,9.5-7.86c4.26-5.45,7.54-11.58,11.83-17c1.19-1.59,2.98-2.56,4.36-3.96c2.37-2.52,5.57-4.28,8.91-5.11
	c3.03-0.48,4.45,2.66,4.42,5.21c-0.1,3.65-0.38,7.32,0.2,10.94c0.74,4.54,1.9,9.08,1.61,13.72c-0.41,4.28,2,8.34,1.16,12.61
	c-1.03,1.76-2.86,2.09-4.72,2.13c0.46,2.67,0.75,5.27-0.09,7.74c1.64-0.19,3.3-0.13,4.79,0.7c0.54,6.31,0.89,12.63,1.29,18.94
	c-1.64,5.47-0.19,11.19,0.17,16.74c0.12,2.48-1.17,4.93-0.27,7.37c0.65,1.84-0.52,3.72-0.04,5.59c1.46,7.76,0.73,15.67,0.13,23.47
	c-0.4,2.57-1.29,5.08-1.14,7.72c-0.12,2.6,0.68,5.59-1.13,7.8c-1.53,2.07-2.07,4.66-3.43,6.81c-0.51,0.92-1.58,0.8-2.47,0.83
	c-3.6-0.02-7.08-1.43-9.98-3.49c-2.48-1.83-3.6-4.9-5.9-6.9c-0.96-0.97-2.39-1.65-2.67-3.11c-1.06-3.64-2.8-7.03-3.93-10.65
	c-0.2-0.61-0.16-1.28,0.04-1.89c-1.05-3.26-1.16-6.99-1.17-10.77c-0.09-0.05-0.17-0.09-0.26-0.14c-0.07-2.19-0.77-4.89,0.03-6.99
	c-1.53-7.32,0.06-14.63,0.21-21.95c-0.01,0-0.02,0-0.03,0.01c-0.05-3.4,0.44-6.84,1.18-10.15c1.95-2.78,3.76-5.79,6.3-8.09
	c0.81-0.69,2.31-1.38,3.42-1.09c2.16-2.61,6.04-3.94,7.61-7.14c-1.25-0.43-2.68-0.47-3.95-0.75c0.14-0.08,0.28-0.14,0.43-0.22
	l-2.4,0.02c0.1,0.06,0.2,0.11,0.3,0.18c-2.34,0.6-4.9,0.92-6.79,2.55c-1.61,1.45-3.1,3.17-3.58,5.34c-0.61,2.35-2.65,3.97-3.37,6.28
	c-1.22,3.38-3.24,6.66-3.01,10.38c-0.05,2.19,0.33,4.47-0.51,6.57c-0.72,1.71-0.63,3.57-0.94,5.36c0.82,0.08,1.82-0.54,2.2,0.01
	c0.28-0.77,1.7-1.54,0.16-2.31c1.54,0.77,0.13,1.54-0.16,2.31c0.1,0.14,0.16,0.36,0.16,0.69c-0.23-0.23-0.24-0.46-0.16-0.69
	c-0.38-0.55-1.38,0.07-2.2-0.01c-0.04,0.2-0.07,0.41-0.12,0.61c-0.1,0.17-0.21,0.33-0.31,0.49c1.77,11.62,3.46,23.96,2.96,35.64
	c0.04,0,0.07,0.01,0.11,0.01c0.22,2.52-0.19,5.15,0.8,7.55c1.19,4.04,3.97,7.29,5.45,11.2c1.07,3.15,4.06,4.96,6.41,7.09
	c2.6,2.07,4.51,5,7.51,6.57c4.42,2.44,8.97,5.04,14.05,5.74c3.28,0.47,6.07-2,7.81-4.52c2.56-3.88,2.3-8.74,3.66-13.04
	c1.22-3.47,1.05-7.22,2.13-10.73c0.92-2.82,0.81-5.83,1.47-8.7c0.44-1.98-0.1-4.03,0.3-6.02c0.97-5.17,0.15-10.46,0.98-15.64
	C101.63,1019.44,101.34,1014.32,101.53,1009.2z"/>
		<path id="求-1" d="M132.15,920.51c-3.83-3.46-6.78-8.98-12.52-9.25c-0.26,3.24,0.98,6.38,0.77,9.63c0.07,3.43-1.66,6.48-2.62,9.68
	c-1.02,3.69-4.05,6.23-6.02,9.39c-1.18,1.97-3.22,3.16-4.62,4.93c-2.16,3.24-5.88,4.75-8.65,7.35l-0.03,0.09l0.13-0.06l-0.13,0.06
	l-0.05,0.14l0.05-0.14l-14.15,6.6c-0.01,0.06-0.02,0.13-0.03,0.19c-1.57,2.69-5,2.04-7.61,2.12c-2.52-0.21-4.64,1.37-7.02,1.84
	c-4.6,0.47-9.36,0.64-13.82-0.74c-3.08-0.95-6.49-0.69-9.4-2.19c-2.33-1.69-4.29-4.34-4.43-7.24c-2.82,0.31-5.64,0.62-8.33-0.05
	c-0.97,3.05,0.26,6.44,2.31,8.77c3.26,2.82,7.43,4.28,11.37,5.89c3.77,1.01,7.77,0.84,11.54,1.91c2.55,0.76,5.38,0.85,7.64,2.35
	l1.75,0.04c2.74-1.59,5.95-1.83,8.99-2.47c1.98-0.42,4.13-0.77,6.08-0.09c6.21-2.65,11.66-4.53,17.75-7.06
	c0.06-0.05,0.12-0.1,0.18-0.15c3.3-1.95,7.48-1.84,10.68-4.02c6.44-5,12.83-10.27,17.69-16.89c2.41-2.48,3.97-5.61,5.2-8.8
	C135.17,928.34,135.62,923.4,132.15,920.51z"/>
		<path id="处-7" d="M165.08,849.1c-1.8-3.03-4.58-5.24-6.8-7.92c-1.57-1.88-3.83-2.97-5.7-4.5c-4.08-3.23-8-6.69-12.51-9.31
	c-4.08-2.44-8.79-3.71-12.67-6.52c-1.67-1.37-3.83-2.19-5.27-3.78c0.95-2.28,1.76-4.64,2.4-7.05l-14.02-3.08
	c-0.33,0.69-0.68,1.37-1.03,2.05c-1.36,0.97-3.07,0.26-4.44-0.31c-4.94-2.38-10.7-2.5-15.53-5.15c-0.12-0.41-0.13-0.82-0.09-1.23
	l-10.65-2.34c-1.88,1.26-4.66-0.21-6.79-0.24c0.15-0.39,0.31-0.77,0.48-1.15l-9.47-2.08c-0.26,0.34-0.54,0.67-0.83,0.98
	c-3.19,2.23-7.01-0.12-10.47,0.97c-4.36,0.86-9.64-1.34-13.24,2.07c11.11,3.58,23.28,3.32,33.94,8.42c-0.17,0.3-0.37,0.58-0.56,0.86
	l9.56,5.83c0.14-0.13,0.29-0.26,0.44-0.39c1.96-1.57,4.33-0.21,6.06,0.99c3.46,2.39,7.77,3.54,10.55,6.85
	c-0.59,0.63-1.21,1.23-1.85,1.83l12.88,7.86c0.27-0.24,0.55-0.46,0.86-0.66c0.92-0.58,2.06-0.28,2.88,0.35
	c7.26,5.54,15,10.44,22.97,14.89c3.39,2,7.19,3.09,10.84,4.51c2.2,0.91,4.59,0.97,6.87,1.49c4.72,2.15,9.93,2.81,15.01,3.61
	C168.38,853.99,166.95,851.38,165.08,849.1z"/>
		<path id="处-6" d="M73.61,823.6c-0.02-0.11-0.06-0.21-0.07-0.33c0.39-0.14,0.75-0.31,1.09-0.49c0.26-0.35,0.48-0.75,0.64-1.24
	c-0.16,0.49-0.38,0.89-0.64,1.24c3.11-1.7,4.52-5.32,7.21-7.54c0.3-0.24,0.6-0.4,0.91-0.52l6.77-11.21c-0.3-1.1,0.12-2.22,0.33-3.3
	c0.9-3.37,1.24-6.84,1.92-10.25c0.55-2.48-0.47-5.7-3.12-6.46c-2.66-0.9-5.44-1.36-8.11-2.23c-0.28,1.77-0.92,3.48-1.92,4.93
	c0.17-0.2,0.35-0.39,0.55-0.57c1.03,0.74,2.08,1.45,3.15,2.13c-1.69,3.68-0.81,8.06-2.87,11.59c-0.25,0.3-0.52,0.53-0.81,0.69
	c-0.56,3.31-3.32,6.98-6.39,9.1c-1.65,2.67-4.22,4.53-6.61,6.49c-4.92,3.81-10.55,6.76-16.56,8.43c-2.46,0.68-5.05,0.22-7.55,0.66
	c-4.72,0.7-9.49-1.32-14.14,0.14c2,4.29,7.43,4.56,11.52,5.22c3.65,0.9,7.29-0.42,10.97-0.14c4.15,0.23,8.1-1.25,12.13-1.96
	c2.65-0.42,4.89-2.12,7.52-2.58c0.39-0.17,0.82-0.32,1.25-0.46C71.4,824.02,72.46,823.81,73.61,823.6z"/>
		<path id="处-5" d="M72,799.61c1.47-3.75,3.72-7.15,5.16-10.91c0.2-0.62,0.48-1.21,0.82-1.75c-0.94,1.11-2.11,2.01-3.54,2.58
	c1.43-0.57,2.6-1.47,3.54-2.58c0.19-0.29,0.4-0.56,0.62-0.82c0.99-1.45,1.64-3.16,1.92-4.93c-0.02-0.01-0.03-0.01-0.05-0.01
	c0.05-0.3,0.11-0.6,0.17-0.9c0.11-1.26,0.05-2.54-0.19-3.76c0.24,1.22,0.31,2.49,0.19,3.76c0.56-3.06,1.16-6.11,1.91-9.13
	c0.45-0.05,0.9-0.12,1.35-0.18c-4.69-0.33-9.44,0.5-13.93,2.02c1.95,0.6,2.54,3.21,2.9,5.05c-2.43,3.61-3.05,8.07-5.63,11.6
	c-1.71,2.43-2.86,5.28-4.86,7.51c0.05,0.88,0.36,1.69,1.06,2.39C65.92,803.86,68.77,802.08,72,799.61z"/>
		<path id="处-4" d="M124.97,789.41c-0.63-2.8,0.08-5.72-0.52-8.51c-1.3-2.59-2.5-5.44-4.91-7.21c-2.15-1.7-3.83-3.91-5.96-5.62
	c-2.28-1.77-5.22-2.14-7.92-2.89c-5.27-1.44-10.64-2.56-16.1-2.97c-4.33-0.31-8.58,0.68-12.78,1.56c0.86-2.63,3.46-4.08,6.04-4.56
	c1.06-2.47,2.98-4.52,5.59-5.32c1.04-2.45,2.4-4.76,3.75-7.05c2.17-3.52,5.22-6.45,7.08-10.16c0.65-2.18,1.41-4.35,1.78-6.59
	c-0.23-2.81-1.45-5.47-1.35-8.33c1.24,0.23,2.47,0.28,3.71,0.26c-1.01-2.64-1.81-5.44-2.83-8.01c-2.16,0.31-4.35,0.5-6.49,0.84
	c0.64-1.67,0.9-3.59,2.17-4.93c2.84-2.49,1.18-6.85,3.1-9.79c0.13-0.05,0.26-0.08,0.4-0.12c-0.05-1.84,0.24-3.71,0.7-5.5
	c-1.31,0.2-2.74-0.18-3.66-1.14c-1.48-1.56,0.63-3.32,1.25-4.81c-1.32-0.49-2.61-1.17-4.03-1.29c-2,0.25-3.92,1-5.74,1.86
	c-0.96,0.52-2.22,1.26-1.95,2.55c0.01,2.01,3.13,2.8,2.52,4.92c-0.23,0.26-0.48,0.5-0.73,0.74c0.63,2.57,0,4.98-1.27,7.17
	c0.45-0.09,0.9-0.17,1.36-0.2c-0.88,3.08-1.32,6.42-3.26,9.08c-1.95,2.71-3.27,5.95-6,8.01c-1.38,1.43-3.91,2.48-3.52,4.84
	c-0.06,1.7,1.02,4.22,3.1,3.79c2.42-0.81,4.53-2.63,7.19-2.65c1.17-0.09,3.12-0.08,3.11,1.55c0.17,2.73,0.72,5.9-1.22,8.16
	c-6.66,9.4-14.18,18.27-22.99,25.7c-2.69,1.29-6.06,0.58-8.54,2.36c-0.77,1.57,0.4,3.35-0.17,4.97c-0.36,1.11-0.99,2.3-0.24,3.42
	c0.74,1.39,1.55,3.93,3.59,3.1c3.51-0.57,6.23-3.46,9.79-3.72c0.58-0.01,1.06,0.12,1.48,0.36c4.01-1.22,8.01-1.97,12.02-1.93
	c0.01-0.05,0.02-0.09,0.03-0.14c3.3-0.38,6.63-1.34,9.96-0.61c8.69,1.48,17.51,7.1,19.78,16.08c0.94,5.41-0.16,10.91-0.32,16.34
	c-0.49,2.1-1.5,4.05-2.49,5.95c-0.18,0.13-0.37,0.23-0.57,0.3c-1.52,3.05-3.31,6.14-5.5,8.75c-1.24,2.3-3.15,4.11-5.37,5.42
	c-3.23,3.34-7.11,6.33-11.8,7.1c-2.38,0.33-5.25,1.54-7.28-0.35c-2-1.58-4.35-3.27-5.17-5.76c0.23,1.61,0.23,3.45,0.23,5.29
	c0-1.84,0-3.68-0.23-5.29c-0.13-0.38-0.22-0.77-0.27-1.19c0.01,0,0.02-0.01,0.03-0.01c-0.14-0.54-0.3-1.05-0.53-1.5
	c-0.5-0.75-1.18-1.43-1.98-1.99c-0.42,1.67-0.53,3.66-0.8,5.61c0.84,2.3,0.79,4.79,1.35,7.15c1.33,2.73,3.23,5.57,6.3,6.51
	c2.59,1.05,5.06,2.73,7.95,2.76c3.92-0.15,7.88-0.44,11.51-2.04c3.12-0.12,5.45-2.21,8.13-3.49c1.91-1.02,3.04-2.99,4.83-4.16
	c0.16-0.1,0.34-0.17,0.51-0.22c4.22-4.48,7.52-9.88,11.36-14.75c-0.02-0.02-0.04-0.04-0.06-0.06
	C125.73,808.41,127.37,798.61,124.97,789.41z"/>
		<path id="处-3" d="M87.52,716.58c3.87,3.1,8.95,3.8,13.36,5.35c3.68,0.39,7.38-0.46,11.08-0.16c3.55,0.35,5.83-2.84,9-3.76
	c4.07-1.34,7.55-3.85,11.1-6.18c3.79-2.25,7.23-5.09,10.1-8.43c0.95-1.64,1.68-3.4,2.67-5.02c0.52-2.05,0.62-4.58-0.65-6.3
	c-6.42,1.59-12.98,3.04-19.23,4.8c0.32,0.03,0.64,0.06,0.95,0.1c-0.18,4.6-3.81,7.9-7.4,10.25c-3.78,2.17-7.81,3.85-11.9,5.33
	c-3.83,1.46-7.97,1.63-11.99,2.21c-2.36,0.4-4.73,0.44-7.09,1.35V716.58z"/>
		<path id="处-2" d="M99.33,700.14c1.56-0.55,3.23-0.34,4.84-0.44c6.9-0.99,13.72-3.49,20.76-2.8c6.25-1.76,12.81-3.21,19.23-4.8
	c-0.35-0.47-0.8-0.89-1.38-1.21c-4.86-2.81-10.47-4.89-16.18-4.31c-1.93-0.06-3.53,1.1-5.25,1.77c-2.59,0.95-5.47,0.58-8.05,1.56
	c-4.06,1.49-8.01,3.31-12.18,4.47c-1.05,0.34-2.25,0.27-3.25-0.21c-3.14,0.98-6.13,2.11-9.48,2.88c-4.87,5.01-12.44,5.57-18.11,9.37
	c-3.39,2.36-7.41,3.56-10.94,5.68c-3.6,1.86-6.72,4.58-10.49,6.14c-3.01,1.21-5.51,3.44-8.66,4.31c-0.74,7.34-2.8,16.53-6.83,21.64
	c0.28-0.02,0.55-0.09,0.82-0.26c3.9-3.48,6.18-8.3,9.7-12.11c1.41-1.57,2.45-3.49,4.17-4.76c6.13-4.12,12.75-7.56,18.41-12.34
	c2.28-1.98,5.52-2.3,7.71-4.45c1.82-1.86,4.71-1.31,6.68-2.91c1.74-1.21,3.63-2.3,5.69-2.79c-0.01,0-0.02,0-0.04,0
	c0.01,0,0.02,0,0.04,0c0.53-0.13,1.07-0.22,1.63-0.26c-0.01,0.03-0.02,0.07-0.03,0.1c4.06-0.72,7.28-3.83,11.14-4.21
	C99.3,700.19,99.31,700.16,99.33,700.14z"/>
		<path id="处-1" d="M40.1,722.56c0.03-0.29,0.1-0.56,0.16-0.84c0.17-1.89,0.25-3.64,0.25-5.13c0,1.5-0.08,3.25-0.25,5.13
	c0.7-3.54,2.93-6.56,4.05-9.98c1.8-3.34,2.16-7.53,5.33-10.01c-0.1-3.44,2.09-6.22,3.87-8.95c1.11-1.63,1.31-3.67,2.27-5.38
	c1.29-2.28,3.48-3.9,4.72-6.21c0.52-1.1,0.14-2.35,0.1-3.5c-1.02,0.03-2.16-0.1-3,0.61c-3.72,2.66-6.55,6.3-9.51,9.73
	c-2.19,2.09-4.29,4.26-6.11,6.69c-4,4.17-8.6,8.3-10.3,14.02c-1.46,3.45-3.56,6.62-4.46,10.29c-2.11,4.51-3.44,9.34-4.19,14.25
	c0.35,1.85,1.02,3.64,1.61,5.43c1.66,1.76,3.78,3.04,5.78,4.38c0.87,0.46,1.92,1.18,2.94,1.1c4.03-5.12,6.09-14.3,6.83-21.64
	C40.15,722.54,40.13,722.56,40.1,722.56z"/>
		<path id="味-7.1" d="M187.52,599.83c-0.1-2.41-2.39-3.57-3.65-5.32c-2.6-3.3-3.06-8.07-6.59-10.66c-3.1-1.68-6.54-2.7-9.56-4.56
	c-2.1-1.29-3.99-2.88-6.12-4.12c-2.4-1.4-5.22-1.82-7.64-3.17c-3.65-1.95-7.23-4.05-11.05-5.65c-3.38-1.34-6.04-3.97-9.43-5.27
	c-4.97-2.06-10.54-3.23-14.66-6.9l-0.08,8.98c0.14-0.48,0.33-0.94,0.59-1.39c1.06,0.04,2.15,0.17,3.07,0.77
	c2.68,1.56,5.43,3.03,7.87,4.95c5.23,4.19,10.8,7.92,16.06,12.08c2.82,2.11,5.66,4.19,8.65,6.07c1.72,1.11,3.73,1.71,5.38,2.95
	c2.69,2.04,5.72,3.61,8.34,5.76c1.75,1.45,4.09,1.79,6.02,2.91c4.3,2.47,6.73,7.21,11.1,9.59
	C188.25,605.44,187.8,602.17,187.52,599.83z"/>
		<path id="味-6.1" d="M119.29,546.79c1.64-2.03,3.64-3.86,5.95-5.11c4.24-0.86,8.65,0.32,12.88-0.54c1.71-0.98,4.22-2.3,4.71-4.32
	c-4.7-1.42-9.37-2.95-14.02-4.64c-0.21,1.36-0.97,2.67-2.3,3.14c-2.49,0.97-5.19,1.18-7.82,1.52c-0.06-1.14-0.16-2.27-0.27-3.41
	c-3.17,0.83-6.35,1.66-9.55,2.52c0.13,0.89,0.2,1.78,0,2.66c-1.7,1.8-4.02,2.78-6.36,3.42c-1.66,0.59-3.35,1.14-5.04,1.64
	c-0.72,2.39-1.85,4.66-3.3,6.65c2-0.15,3.97-0.49,5.88-1.19c1.36-0.61,2.8-0.17,4.12,0.35c-1.14,1.59-2.28,3.19-3.67,4.57
	c-2.05,2.1-5.08,2.93-6.98,5.19c-2.64,3.15-5.76,5.91-9.25,8.08c-2.85,1.77-4.83,4.78-8.08,5.95c-3.27,1.13-5.59,3.8-8.53,5.51
	c-3.24,1.8-6.04,4.32-9.37,5.95c-5.15,1.41-10.34,2.82-15.3,4.84c0.29,2.01,2.52,2.8,4.18,3.43c4.58,0.92,9.59,0.06,13.4-2.72
	c3.24-2.32,7.21-3.29,10.55-5.43c1.61-1.05,3.37-1.84,5.12-2.62c2.17-0.91,2.89-3.54,5.03-4.51c2.84-1.52,5.96-2.84,7.96-5.5
	c1.41-2.02,3.53-3.32,5.43-4.81c3.52-3.35,7.79-5.77,11.29-9.15c0.97-0.77,1.86-2.25,3.3-1.8c0.06,0.32,0.1,0.65,0.14,0.97
	c3.02-1.97,6.05-4.02,9.16-5.85C118.53,549.95,118.72,548.32,119.29,546.79z"/>
		<path id="味-5.1" d="M122.8,540.31c-0.18-1.32-0.32-2.65-0.63-3.97c-1.16,0.17-2.32,0.3-3.47,0.44
	c-0.45-8.42-2.76-16.97-0.58-25.33c0.89-2.6-1.01-5.41,0.38-7.9c0.85-1.72,2.15-3.11,3.52-4.44l1.88-13.48
	c-1.25,0.11-2.5,0.16-3.73-0.08c-0.31-2.98-0.99-6-0.5-9c0.35-2.51,0.12-5.04,0.17-7.55c0.01-2.4,1.15-4.61,1.27-6.99
	c0.16-2.21,0.24-4.42,0.36-6.64c-0.22-2.08,3.49-2.43,2.62-4.61c-3.46-3.67-8.79-4.06-13.41-5.21c-2.06-0.4-4.6-1.59-6.33,0.23
	c-1.71,1.09-1.7,4.42,0.48,4.97c2.44,0.68,4.92,1.82,6.09,4.23c1.29,1.74,0.53,3.87,0.3,5.79c-0.12,3.14,0.01,6.28,0.11,9.42
	c-0.33,3.33-0.77,6.66-1,10c-0.9,3.21-0.6,6.54-0.75,9.82c-0.26,0.17-0.53,0.32-0.79,0.47l-1.2,11.03c0.18,0.05,0.37,0.09,0.55,0.16
	c-0.17,1.63-0.24,3.3-0.67,4.89c-0.14,0.38-0.32,0.72-0.54,1.05l-0.73,6.72c0.52-0.05,1.04-0.11,1.56-0.17
	c1.59,6.52-0.1,13.36,0.87,19.97c0.17,1.45,0.6,2.94,0.26,4.4c-0.01,0.01-0.02,0.02-0.04,0.03l0.35,17.81c0.02,0,0.03,0,0.05,0.01
	c0.68,3.92,0.57,7.95-0.44,11.8c0.75,1.81,0.25,3.67,0.08,5.53c0.36,3.97-1.45,7.76-1.03,11.74c0.35,3.1,0.13,6.27-0.46,9.33
	c-0.14,1.54-1.85,1.72-2.95,2.3c-4.92,2.25-9.79,5.4-15.4,5.2c2.88,3.9,7.75,5.36,11.14,8.69c1.95,2.3,5.26,1.79,7.76,3.11
	c2.08,0.95,5.27,1.91,6.64-0.6c2.43-2.5,0.58-6.31,2.42-9.06c2.32-3.71-0.74-7.82-0.24-11.75c1.18-7.23,1.5-14.55,1.77-21.86
	c0.2-2.52-0.48-5.26,0.24-7.7l0.08-8.98c-0.06-0.05-0.12-0.1-0.18-0.15c-0.2-2.42-0.21-4.95,0.65-7.25
	c0.08-0.09,0.16-0.18,0.24-0.28C119.71,544.04,120.94,541.7,122.8,540.31z"/>
		<path id="味-4.1" d="M125.24,541.64c4.24-0.86,8.65,0.32,12.88-0.54c2.12-1.22,5.47-2.94,4.68-5.89c-1.61-3.61-5.63-4.95-8.88-6.64
	c-2.16-0.97-3.69-2.81-5.24-4.52c-0.26,0.2-0.77,0.62-1.03,0.83c0.36,2.09,1.11,4.12,1.23,6.26c0.1,1.66-0.7,3.56-2.36,4.15
	c-2.45,0.96-5.1,1.18-7.69,1.5c-4.76,2.13-9.61,3.5-14.76,4.71c-0.51,0.18-1.04,0.35-1.56,0.49c-5.54,1.96-11.28,3.6-17.18,3.81
	c-2.74,0.04-5.06-1.5-7.14-3.1c-0.55,1.7-1.11,3.97,0.54,5.28c2.04,1.58,4.72,1.99,7.21,2.3c4.71,0.14,9.58,0.48,14.09-1.18
	c1.22-0.55,2.5-0.25,3.69,0.19c7.1-0.82,13.67-7.19,21.23-7.46C125.05,541.76,125.14,541.69,125.24,541.64z"/>
		<path id="味-3.1" d="M118.41,503.73c0.03-0.06,0.05-0.12,0.08-0.18c1.36-2.76,3.89-4.66,5.96-6.85c2.66-2.85,6.84-3.72,9.27-6.82
	c0.8-1.84-1.11-3.36-2.64-3.93c-3.53-1.48-7.29,0.31-10.93-0.39c0-0.02,0-0.04-0.01-0.06c-3.6,1.37-6.84,4.83-10.61,4.53
	c-7.21,4.69-16.27,3.74-24.35,5.26c1,1.72,2.75,2.69,4.64,3.17c2.52,0.56,4.2,3.25,6.92,3.03c3.76-0.42,7.71-1.12,11.37,0.18
	c-0.17,1.63-0.24,3.3-0.67,4.89c-1.18,3.31-5.97,4.1-6.27,7.85c2.19,0.19,4.38,0.01,6.56-0.26c0.01,0.05,0.02,0.1,0.03,0.14
	C111.81,511.28,114.54,506.93,118.41,503.73z"/>
		<path id="味-2.1" d="M38.3,506.53c3.69-1.79,6.83-5.1,11.12-5.32c3.94,0.85,6.6,4.4,7.55,8.15c-1.19,3.35-3.55,6.14-5.56,9.04
	c-1.31,2.05-4.12,3.03-4.52,5.62c-0.65,3.87-3.65,7.05-3.35,11.11c1.31-0.66,2.47-1.56,3.62-2.45c1.72-1.38,4.03-1.77,5.64-3.3
	c1.61-1.4,2.85-3.3,4.91-4.08c-0.43,2.34-0.99,4.74-2.2,6.82c-2.18,2.92-5.66,4.56-7.71,7.6c-0.98,1.46-1.4,3.21-2.4,4.65
	c-1.51,1.34-3.39,2.16-5.06,3.28c-2.17,1.21-3.73,3.19-5.66,4.71c-2.03-1.36-3.97-2.84-5.82-4.43c-1.55-1.05-1.48-3.33-0.64-4.81
	c3.52-4.92,4.46-11.16,7.85-16.17c0.7-3.48,3.17-6.09,4.51-9.29C35,517.09,29.5,521,24.06,518.76c-2.28-1.43-4.19-3.62-5.28-6.07
	c2.53-2.8,6.4,0.22,9.27-1.68C31.3,509.15,34.92,508.11,38.3,506.53z"/>
		<path id="味-1.1" d="M3.26,517.78c0.88-0.47,1.75-1.03,2.73-1.26c2.24,0.45,4.1,2.02,6.37,2.36c1.86,0.16,3.74,0.1,5.6,0.2
	c1.48,2.12,1.97,4.74,3.37,6.92c0.92,1.41,0.95,3.15,0.83,4.77c-0.26,2.82,0.68,5.63,0.2,8.44c-0.7,4.48-1.68,9.02-3.8,13.07
	c-0.38-0.04-1.13-0.13-1.51-0.17c-3.33-4.32-4.69-9.84-4.7-15.23c0.1-4.03-2.66-7.39-2.76-11.4C9.31,521.78,5.52,520.2,3.26,517.78z
	"/>
		<path id="无-8" d="M137.33,377.12c2.56-1.86,5.85-2.44,8.95-2.27c1.73,0.74,2.85,2.56,4.77,2.98c3.03,0.86,5.89,2.43,9.11,2.55
	c0.62,2.39,1.16,4.87,2.5,6.98c0.61,0.88,0.93,1.91,1.11,2.96c-1.65,0.15-3.35,0.04-4.95,0.58c-2.71,0.98-3.56,4.43-6.41,5.16
	c-3.44,1.92-6.93-0.92-9.78-2.69c-2.19,1.29-4.6,0.84-6.94,0.4c-2,0.72-3.72,2-5.59,2.98c-2.45,1.02-6.02-0.59-7.76,1.91
	c-0.65,2.36-0.45,5.13-2.79,6.64c-1.8-1.98-1.96-5.59,0.13-7.42c0.96-0.97,1.97-2.01,3.33-2.37c3.28-0.97,7-2.07,8.96-5.12
	c-2.66-0.67-5.54-1.7-8.25-0.7c-1.16,1.11-1.88,2.59-2.77,3.92c-2.59-1.6-6-2.9-8.95-1.51c-2.62,0.99-5.27,2-8.01,2.64
	c-2.98,0.22-6.06-0.08-8.94,0.9c-2.33,0.77-4.79,0.89-7.23,1.02c-0.6,0.77-1.18,1.56-1.78,2.34c-3.73-0.47-7.47,0.43-11.19,0.04
	c-2.95-0.96-5.41-3.01-7.64-5.11c1.44-2.2,2.23-4.81,3.93-6.84c1.27-0.63,2.75-0.46,4.12-0.65c2.23-0.23,4.31-1.25,6.56-1.4
	c3.08,0.13,5.88,1.84,8.99,1.91c1.83,0.08,3.49-0.79,5.25-1.14c2.02-0.35,4.08-0.17,6.1-0.42c2.25-0.33,4.41-1.08,6.64-1.5
	c3.69-0.51,7.41,0.42,11.1,0.05c3.33-0.33,5.72-3,8.9-3.79C131.7,379.32,134.83,378.96,137.33,377.12z"/>
		<path id="无-7" d="M176.29,344.55c-1.63-1.47-3.85-2.22-5.29-3.94c-0.77-1.09-1.09-2.42-1.6-3.64c-2.37,0.42-4.76,0.76-7.14,1.1
	c-3.64,0.52-7.21-0.7-10.6-1.89c-1.71-0.56-3.2-1.99-5.11-1.75c-1.19-0.07-1.94,0.95-2.79,1.6c1.04,1.64,1.91,3.39,2.32,5.3
	c-2.62,1.06-5.34,1.79-8.05,2.55c-2.98,0.86-6.1,0.69-9.14,1.14c-1.61,0.24-3.25,0.17-4.86,0.01c0.47-0.57,0.91-1.16,1.34-1.76
	c-4.03,0.85-8.08,1.66-12.13,2.42c-0.22,0.51-0.46,1.01-0.76,1.49c-2.46,1.41-5.45,1.12-8.03,2.19c-1.8,0.67-3.25,1.95-4.94,2.82
	c-1.42,0.3-2.83-0.33-4.22-0.55c-1.82-0.68-3.41,0.81-5.17,1.04c-3.71,0.49-7.46,0.92-11.21,0.66c-1.77-0.17-3.32,0.85-4.93,1.4
	c-2.7,1.22-5.73,0.33-8.55,1.05c-1.7,0.55-3.33-0.12-4.77-0.99c0.84-0.04,1.68-0.06,2.52-0.07c-0.3-0.3-0.61-0.61-0.91-0.92
	c-6.69,0.96-13.35,1.92-19.98,2.91c-0.66,0.73-1.11,1.72-1.77,2.45c-1.71,0.97-4.04-0.13-5.52,1.33c-0.67,0.52-1.29,1.09-1.93,1.65
	c-3.25-1.46-6.08,1.25-9.15,1.91c-3.88,0.67-7.64,2-11.62,2.02c-0.41,2.27-1.71,4.68-0.52,6.92c0.59,2.44,3.26,3.46,5.45,4
	c4.81-0.93,9.52-2.28,14.3-3.34c3-0.83,5.48-2.85,8.49-3.68c4.48-1.26,9.09-1.98,13.68-2.78c1.16,0.93,2.36,1.82,3.61,2.63
	c1.45-1.69,2.84-3.55,4.88-4.56c1.5-0.69,3.24-0.37,4.74-1.05c1.76-0.72,3.41-1.79,5.31-2.11c1.16,0.14,2.26,0.9,3.44,0.77
	c0.8-1.16,1.28-2.53,2.22-3.6c3.54-1.19,7.24-2,11-1.91c2.09,0.13,3.53-1.57,5.29-2.37c2.96-0.72,6.36-0.13,8.57,2.08
	c1.64,3.19-1.37,6.12-3.67,7.97c-0.01,0.01-0.02,0.03-0.04,0.04c2.64,0.36,5.28,0.65,7.91,0.93c1.92-2.76,4.25-5.25,7.05-7.13
	c1.79-1.02,2.12-3.33,3.79-4.49c1.56-1.08,3.26-1.99,5.06-2.59c1.7-0.01,3.14,1.46,4.82,1.38c4.57-1.61,9.47-1.64,14.08-3.13
	c2.59-1,5.26,0.08,7.9,0.13c3.8-0.36,7.59-1.18,11.42-0.96c3.71,0.74,7.37,1.7,11.08,2.35c2.6,0.38,5.08-0.68,7.55-1.32
	C178.04,348.71,176.77,346.81,176.29,344.55z"/>
		<path id="无-6" d="M60.69,354.81c1.07-0.05,2.14-0.06,3.21-0.08c1.22-1.28,2.24-2.94,3.99-3.55c3.49-1.21,7.16-1.96,10.48-3.59
	c0.77-1.02,1.18-2.26,1.92-3.3c2.52-1.93,5.69-2.52,8.63-3.49c2.96-1.09,4.33-4.61,7.52-5.23c3.21-0.73,6.27-2.03,9.5-2.69
	c2.25-0.52,4.56,0.46,6.8-0.15c2.03-0.57,3.8-1.77,5.66-2.72c0.32-0.24,0.64-0.48,0.85-0.72c0.04-0.12,0.06-0.25,0.09-0.38
	c-0.18,0.19-0.37,0.37-0.55,0.56c0.13-1.35,0.3-2.7,0.47-4.04c-2.83-2.3-6.37-3.2-9.75-4.36c-7.07,2.23-14.02,4.95-20.83,8.04
	c0.37,0.14,0.74,0.28,1.1,0.43c-0.45,1.5-0.97,3.1-2.34,4.03c-2.18,1.68-4.41,3.29-6.57,5c-2.29,1.95-5.27,2.69-8.1,3.49
	c-1.77,0.49-2.78-1.47-3.47-2.76c0-0.12,0.01-0.24,0.01-0.35c-2.68,1.5-5.34,3.04-7.98,4.62c-0.63,3.18-3.18,5.54-5.6,7.58
	c-3.79,2.04-7.9,3.34-11.97,4.7c-1.66,0.42-2.17,2.21-3.21,3.36c-0.9,0.51-1.97,0.45-2.99,0.48c-3.22,4.42-5.72,9.46-8.15,14.52
	c0.72-0.17,1.43-0.34,2.15-0.5c3-0.83,5.48-2.85,8.49-3.68c0.65-0.18,1.3-0.33,1.95-0.49c6.15-5.04,11.24-11.56,19.44-14.3
	C61.18,355.09,60.93,354.95,60.69,354.81z"/>
		<path id="无-5" d="M108.71,320.79c0.04-0.36,0.15-1.09,0.2-1.45c1.51-0.65,2.98-1.61,4.51-2.3c-0.83-1.94-1.66-3.78-2.5-5.67
	c-2.4,0.19-4.78,0.52-7.05,1.36c-0.83-1.98-1.95-3.81-3.11-5.61c-0.79-1.04-0.1-2.31,0.39-3.31c0.32-0.58,0.61-1.18,0.93-1.76
	c-3.94,0.59-8.18,1.25-11.93,3.96c0.05,4.55,0.17,9.11,0.02,13.66c0.04,1.61-1.56,2.47-2.49,3.56c-0.15-0.09-0.29-0.18-0.44-0.26
	c0.06,1.9,0.09,3.79,0.14,5.67c0.81,0.29,1.62,0.59,2.42,0.92c-0.11,0.36-0.22,0.72-0.35,1.08c3.82,4.15,8.42,5.63,13.02,2.87
	c1.78-1.78,3.36-3.95,4.92-6.26l1.37-6.43C108.74,320.8,108.72,320.79,108.71,320.79z"/>
		<path id="无-4" d="M69.29,339.31c-0.01-2.28,0.67-4.52,1.01-6.76c0.36-0.09,0.72-0.16,1.08-0.24c-1.64-1.8-1.91-4.46-1.95-6.8
	c-0.84,0.02-1.66-0.11-2.43-0.53c-1-2.29-1.82-4.69-2.46-7.11c0.03-0.05,0.07-0.09,0.1-0.15c-1.03-1.37-0.19-3.02,0.39-4.49
	c-1.88,0.78-2.57-1.51-3.68-2.52c-2.91-2.96-7.33-3.28-10.94-5.02c-2.08-1.05-4.39-1.41-6.68-1.72c-0.65-1.57-1.41-3.33-0.6-4.99
	c0.33-1.68,2.27-1.89,3.52-2.6c0.02-0.39,0.05-1.17,0.07-1.56c-1-0.43-1.91-1.38-3.04-1.31c-0.84,0.94-1.44,2.08-2.34,2.97
	c-1.56,1.29-3.62,1.96-4.9,3.58c-0.33,3.86,4.33,4.99,7.33,5.25c0.59,0.85,1.18,1.7,1.77,2.55c1.47,0.15,2.91,0.49,4.31,0.96
	c-0.02,2.68-0.4,5.39,0.22,8.03c0.42,1.86,0.15,3.94,1.14,5.63c1.63,0.91,3.33,1.7,4.79,2.88c-0.95,1.73-1.56,3.85-3.26,5.02
	c-1.25,0.44-2.47,0.28-3.62-0.16c-0.66,1.54-1.31,3.18-1.77,4.82c0.18,0.84,0.4,1.67,0.7,2.48c1.18-0.19,2.36-0.33,3.55-0.4
	c2.17-0.61,4.51-1.22,6.42,0.38c-0.2,0.7-0.4,1.4-0.6,2.11c1.35,0.93,2.69,1.87,4.04,2.79c-0.05,1.25-0.42,2.38-0.96,3.42
	c2.27,2.46,5.69,4.82,8.49,4.44c1.26-2.52,1.58-5.64,2.14-8.45C70.31,341.25,69.73,340.14,69.29,339.31z"/>
		<path id="无-3" d="M137.11,308.59c-1.31-1.04-2.7-2.55-4.54-2.13c-3.9,0.56-7.81,1-11.71,1.59c-3.03,0.44-5.5,2.46-8.42,3.21
	c-2.78,0.18-5.57,0.44-8.22,1.34c-4.12,3.52-9.2,6.39-14.41,8.22c-0.49,0.93-1.52,1.61-2.2,2.41c-0.85-0.51-1.7-1.02-2.55-1.53
	c-3.32,1.77-7.01,2.53-10.71,2.96c-1.89,0.22-3.94,1.04-5.85,0.79c-4.98,2.11-10.46,3.14-15.43,4.62c-0.12,0.1-0.23,0.21-0.37,0.3
	c-2.82,0.99-5.44-1-7.61-2.55c0.83-2.14,2.02-4.12,3.03-6.18c-2.04,0.35-4.15,0.83-5.88,2.02c-1.63,1.6-2.09,4.6-4.72,4.97
	c-3.01,0.26-5.95-0.71-8.88-1.22c-1.8-0.11-2.78-1.75-3.99-2.84c-0.61,0.9-1.43,1.72-1.7,2.8c0.56,1.52,1.83,2.8,1.83,4.5
	c0.2,1.52-0.07,3.16,0.48,4.61c1.32,1.08,2.82,1.94,4.08,3.1c1.51,1.48,3.78,1.57,5.77,1.73c4.94-1.89,10.06-3.62,15.36-4.09
	c6.39-2.32,12.81-3.98,19.77-4.46c0.01-0.07,0.02-0.14,0.04-0.21c2.57-0.62,5.25-0.93,7.69-1.99c1.76-0.76,3.16-2.11,4.61-3.32
	c1.56,0.37,3.1,0.84,4.61,1.36c7.08-4.01,14.24-8.33,22.45-9.61c2.33-1.16,4.58-2.82,7.25-2.78c1.98,0.82,3.83,2.12,6.08,2.01
	c-0.61,2.73-1.57,5.45-1.16,8.29c-0.9,0.81-1.75,1.67-2.6,2.53l-0.21,0.69c0.02-0.01,0.04-0.02,0.06-0.03
	c0.17,4.59-2.2,8.72-4.35,12.61c-0.83,1.59-1.27,3.38-2.21,4.91c-0.18,0.1-0.36,0.18-0.54,0.26c-1.63,5.58-5.21,9.53-9.04,13.11
	c-0.69,1.79-2.39,3.35-3.82,4.5c-2.44,2.9-5.07,5.64-7.76,8.3c-2.71,2.79-6.46,4.15-9.46,6.57c-0.02,0.51-0.06,1.53-0.09,2.04
	c1.93-0.08,4.19,0.61,5.84-0.71c2.6-1.96,5.32-3.76,8.05-5.53c2.04-1.37,3.24-3.59,4.93-5.32c1.73-1.82,4.78-1.77,6.12-4.03
	c1.96-2.9,4.37-5.51,7.29-7.47c1.47-0.85,1.97-2.56,3.03-3.78c2-3.76,4.52-6.99,7.08-10.19c1.66-2.04,2.98-4.35,4.74-6.32
	c1.13-1.41,2.55-2.66,3.28-4.36c1.68-3.76,3.26-7.62,5.81-10.89c1.15-1.45,1.88-3.19,3.1-4.58c1.5-1.18,3.3-1.86,4.98-2.73
	C143.36,313.23,140,311.17,137.11,308.59z"/>
		<path id="无-2" d="M64.61,317.71c1.64-2.91,5.04-4.05,7.85-5.52c1.59-0.93,3.44-1.02,5.2-1.31c2.53-1.09,4.48-3.22,7-4.34
	c1.78-0.43,3.62-0.49,5.43-0.73c0,0.07,0,0.13,0,0.2c3.75-2.71,7.99-3.36,11.93-3.96c0.43-0.81,0.88-1.6,1.46-2.31
	c1.31-0.72,2.81-0.96,4.16-1.58c0.97-0.98,1.57-2.27,2.62-3.19c2.27-1.56,5.23-1.72,7.41-3.42c1.79-1.41,3.53-2.97,5.61-3.96
	c3.48-1.42,7.33-1.79,10.69-3.48c5.36-3.95,11.17-7.62,17.76-9.07c2.86-0.62,5.61-1.78,7.97-3.53c3.55-2.51,7.94-3.24,12.13-4.01
	c2.82-0.56,5.25-2.22,7.57-3.85c0.9-0.61,1.73-1.56,1.68-2.73c-1.09-2-2.88-3.37-4.84-4.44c-6.98,0.59-13.91,1.39-20.76,2.7
	c0.28,1.49,0.82,2.89,1.95,3.99c-0.93,0.67-1.91,1.28-2.94,1.8c-0.24-1.04-0.47-2.07-0.7-3.1c-2.69,2.2-5.11,4.79-8.19,6.44
	c-1.96,1.22-4.37,1.82-5.89,3.65c-2.11,2.48-5.17,3.78-7.68,5.77c-3.69,3.01-8.67,3.77-12.27,6.92c-1.58,1.64-4.2,0.42-5.86,1.86
	c-1.81,1.38-3.54,2.89-5.5,4.06c-2.75,1.47-6,1.77-8.59,3.57c-1.18,0.72-2.14,1.84-3.45,2.34c-2.53,0.45-5.13,0.13-7.65,0.59
	c-0.61,0.75-0.98,1.65-1.41,2.52c-1.15,2.76-4.03,4.4-6.73,5.34c-3.36-0.93-6.44-2.69-9.08-4.95c-0.91-0.91-2.27-0.64-3.42-0.81
	c1.25,2.13,3.55,3.21,5.29,4.84c0.72,1.98-0.9,3.82-2.53,4.7c-2.17,1.21-3.68,3.3-5.84,4.5c0,0,0,0,0,0
	C64.42,314.69,63.59,316.34,64.61,317.71z"/>
		<path id="无-1_00000159438921222526946170000017870275100760094359_" d="M56.39,259.61c0.84,0.41,0.84,0.84,0.02,1.31
	C55.57,260.51,55.56,260.07,56.39,259.61z M173.77,255.28c-2.91-1.85-5.56-4.18-8.84-5.38c-4.51,0.76-8.93,2.06-13.52,2.41
	c-1.5,0.13-2.74,1.09-4.08,1.69c-2.38,1.26-5.13,1.52-7.53,2.74c-3.07,1.54-6.44,2.3-9.78,3.05c-3.51,0.74-5.89,3.87-9.37,4.67
	c-4.57,0.98-9.29,0.67-13.88,1.57c-3.82,0.29-7.74,0.79-11.51-0.12c-2.16-0.54-4.47-0.25-6.59-0.95c-1.59-1.03-2.98-2.49-4.95-2.77
	c-3.96-0.81-7.7-2.66-10.72-5.34c-1.73-1.29-0.77-3.62-0.84-5.41c-1.16-0.62-2.34-1.22-3.5-1.85c0.03-1.64,0.28-3.32-0.07-4.95
	c-0.81-1.84-2.77-2.97-3.3-4.98c-0.67-2.1-1.95-3.94-3.47-5.51c-1.25-1.31-3.17-1.39-4.83-1.76c-0.63-2.1-1.02-4.28-1.8-6.33
	c-0.19-0.1-0.56-0.32-0.74-0.43c-2.37,1.48-4.28,3.81-5.14,6.49c0.11,0.94,0.5,1.82,0.8,2.72c1.27,0.24,2.58,0.36,3.81,0.79
	c0.9,0.83,1.66,1.79,2.46,2.72c-0.91,1.11-1.82,2.21-2.7,3.34c0.6,1.88,1.22,3.74,1.88,5.59c-0.58,0.9-1.19,1.78-1.66,2.74
	c1.15,1.57,3.59,2.02,3.98,4.11c0.6,2.16,0.92,4.45,0.46,6.67c-0.45,1.27-1.4,2.3-2.11,3.44c1.4,0.16,2.78-0.12,4.08-0.65
	c0.24,1.02-0.22,2.6,1.04,3.02c2.11,1,4.57,0.29,6.78,0.95c1.62,0.68,2.99,1.96,4.79,2.18c3.15,0.39,5.54,2.67,8.46,3.67
	c1.36,0.5,2.79,0.76,4.19,1.12c2.02,0.46,3.58,1.91,5.41,2.78c1.84,0.98,4.01,0.58,5.98,1.09c1.41,0.52,2.73,1.54,4.31,1.2
	c2.26-0.33,4.42,0.5,6.64,0.68c2.11-0.58,3.78-2.08,5.73-3c1.78-0.83,3.57-1.63,5.41-2.3c2.28-0.94,4.87-0.01,7.1-1.15
	c3.58-1.08,5.47-4.48,7.48-7.34c1.84-2.78,5.28-3.59,7.72-5.68c1.36-0.99,2.48-2.37,4.06-3.02c3.28-0.34,6.59,0.05,9.88-0.03
	c0.04,0.47,0.11,0.94,0.19,1.41c6.84-1.31,13.78-2.11,20.76-2.7C175.44,256.04,174.6,255.64,173.77,255.28z"/>







		<clipPath id="味-1">
			<path d="M3.65,77.15c0.88-0.47,1.75-1.03,2.73-1.26c2.24,0.45,4.1,2.02,6.37,2.36c1.86,0.16,3.74,0.1,5.6,0.2
	c1.48,2.12,1.97,4.74,3.37,6.92c0.92,1.41,0.95,3.15,0.83,4.77c-0.26,2.82,0.68,5.63,0.2,8.44c-0.7,4.48-1.68,9.02-3.8,13.07
	c-0.38-0.04-1.13-0.13-1.51-0.17c-3.33-4.32-4.69-9.84-4.7-15.23c0.1-4.03-2.66-7.39-2.76-11.4C9.7,81.15,5.9,79.56,3.65,77.15z"/>
		</clipPath>

		<clipPath id="味-2">
			<path id="味-2" d="M38.68,65.9c3.69-1.79,6.83-5.1,11.12-5.32c3.94,0.85,6.6,4.4,7.55,8.15c-1.19,3.35-3.55,6.14-5.56,9.04
	c-1.31,2.05-4.12,3.03-4.52,5.62c-0.65,3.87-3.65,7.05-3.35,11.11c1.31-0.66,2.47-1.56,3.62-2.45c1.72-1.38,4.03-1.77,5.64-3.3
	c1.61-1.4,2.85-3.3,4.91-4.08c-0.43,2.34-0.99,4.74-2.2,6.82c-2.18,2.92-5.66,4.56-7.71,7.6c-0.98,1.46-1.4,3.21-2.4,4.65
	c-1.51,1.34-3.39,2.16-5.06,3.28c-2.17,1.21-3.73,3.19-5.66,4.71c-2.03-1.36-3.97-2.84-5.82-4.43c-1.55-1.05-1.48-3.33-0.64-4.81
	c3.52-4.92,4.46-11.16,7.85-16.17c0.7-3.48,3.17-6.09,4.51-9.29c-5.57-0.58-11.07,3.33-16.51,1.09c-2.28-1.43-4.19-3.62-5.28-6.07
	c2.53-2.8,6.4,0.22,9.27-1.68C31.69,68.52,35.3,67.48,38.68,65.9z"/>
		</clipPath>

		<clipPath id="味-3">
			<path d="M118.8,63.1c0.03-0.06,0.05-0.12,0.08-0.18c1.36-2.76,3.89-4.66,5.96-6.85c2.66-2.85,6.84-3.72,9.27-6.82
	c0.8-1.84-1.11-3.36-2.64-3.93c-3.53-1.48-7.29,0.31-10.93-0.39c0-0.02,0-0.04-0.01-0.06c-3.6,1.37-6.84,4.83-10.61,4.53
	c-7.21,4.69-16.27,3.74-24.35,5.26c1,1.72,2.75,2.69,4.64,3.17c2.52,0.56,4.2,3.25,6.92,3.03c3.76-0.42,7.71-1.12,11.37,0.18
	c-0.17,1.63-0.24,3.3-0.67,4.89c-1.18,3.31-5.97,4.1-6.27,7.85c2.19,0.19,4.38,0.01,6.56-0.26c0.01,0.05,0.02,0.1,0.03,0.14
	C112.19,70.65,114.92,66.3,118.8,63.1z"/>
		</clipPath>

		<clipPath id="味-4">
			<path d="M125.62,101.01c4.24-0.86,8.65,0.32,12.88-0.54c2.12-1.22,5.47-2.94,4.68-5.89c-1.61-3.61-5.63-4.95-8.88-6.64
	c-2.16-0.97-3.69-2.81-5.24-4.52c-0.26,0.2-0.77,0.62-1.03,0.83c0.36,2.09,1.11,4.12,1.23,6.26c0.1,1.66-0.7,3.56-2.36,4.15
	c-2.45,0.96-5.1,1.18-7.69,1.5c-4.76,2.13-9.61,3.5-14.76,4.71c-0.51,0.18-1.04,0.35-1.56,0.49c-5.54,1.96-11.28,3.6-17.18,3.81
	c-2.74,0.04-5.06-1.5-7.14-3.1c-0.55,1.7-1.11,3.97,0.54,5.28c2.04,1.58,4.72,1.99,7.21,2.3c4.71,0.14,9.58,0.48,14.09-1.18
	c1.22-0.55,2.5-0.25,3.69,0.19c7.1-0.82,13.67-7.19,21.23-7.46C125.44,101.13,125.53,101.06,125.62,101.01z"/>
		</clipPath>

		<clipPath id="味-5">
			<path d="M123.18,99.68c-0.18-1.32-0.32-2.65-0.63-3.97c-1.16,0.17-2.32,0.3-3.47,0.44c-0.45-8.42-2.76-16.97-0.58-25.33
	c0.89-2.6-1.01-5.41,0.38-7.9c0.85-1.72,2.15-3.11,3.52-4.44l1.88-13.48c-1.25,0.11-2.5,0.16-3.73-0.08c-0.31-2.98-0.99-6-0.5-9
	c0.35-2.51,0.12-5.04,0.17-7.55c0.01-2.4,1.15-4.61,1.27-6.99c0.16-2.21,0.24-4.42,0.36-6.64c-0.22-2.08,3.49-2.43,2.62-4.61
	c-3.46-3.67-8.79-4.06-13.41-5.21c-2.06-0.4-4.6-1.59-6.33,0.23c-1.71,1.09-1.7,4.42,0.48,4.97c2.44,0.68,4.92,1.82,6.09,4.23
	c1.29,1.74,0.53,3.87,0.3,5.79c-0.12,3.14,0.01,6.28,0.11,9.42c-0.33,3.33-0.77,6.66-1,10c-0.9,3.21-0.6,6.54-0.75,9.82
	c-0.26,0.17-0.53,0.32-0.79,0.47l-1.2,11.03c0.18,0.05,0.37,0.09,0.55,0.16c-0.17,1.63-0.24,3.3-0.67,4.89
	c-0.14,0.38-0.32,0.72-0.54,1.05l-0.73,6.72c0.52-0.05,1.04-0.11,1.56-0.17c1.59,6.52-0.1,13.36,0.87,19.97
	c0.17,1.45,0.6,2.94,0.26,4.4c-0.01,0.01-0.02,0.02-0.04,0.03l0.35,17.81c0.02,0,0.03,0,0.05,0.01c0.68,3.92,0.57,7.95-0.44,11.8
	c0.75,1.81,0.25,3.67,0.08,5.53c0.36,3.97-1.45,7.76-1.03,11.74c0.35,3.1,0.13,6.27-0.46,9.33c-0.14,1.54-1.85,1.72-2.95,2.3
	c-4.92,2.25-9.79,5.4-15.4,5.2c2.88,3.9,7.75,5.36,11.14,8.69c1.95,2.3,5.26,1.79,7.76,3.11c2.08,0.95,5.27,1.91,6.64-0.6
	c2.43-2.5,0.58-6.31,2.42-9.06c2.32-3.71-0.74-7.82-0.24-11.75c1.18-7.23,1.5-14.55,1.77-21.86c0.2-2.52-0.48-5.26,0.24-7.7
	l0.08-8.98c-0.06-0.05-0.12-0.1-0.18-0.15c-0.2-2.42-0.21-4.95,0.65-7.25c0.08-0.09,0.16-0.18,0.24-0.28
	C120.09,103.41,121.32,101.07,123.18,99.68z"/>
		</clipPath>

		<clipPath id="味-6">
			<path d="M119.67,106.16c1.64-2.03,3.64-3.86,5.95-5.11c4.24-0.86,8.65,0.32,12.88-0.54c1.71-0.98,4.22-2.3,4.71-4.32
	c-4.7-1.42-9.37-2.95-14.02-4.64c-0.21,1.36-0.97,2.67-2.3,3.14c-2.49,0.97-5.19,1.18-7.82,1.52c-0.06-1.14-0.16-2.27-0.27-3.41
	c-3.17,0.83-6.35,1.66-9.55,2.52c0.13,0.89,0.2,1.78,0,2.66c-1.7,1.8-4.02,2.78-6.36,3.42c-1.66,0.59-3.35,1.14-5.04,1.64
	c-0.72,2.39-1.85,4.66-3.3,6.65c2-0.15,3.97-0.49,5.88-1.19c1.36-0.61,2.8-0.17,4.12,0.35c-1.14,1.59-2.28,3.19-3.67,4.57
	c-2.05,2.1-5.08,2.93-6.98,5.19c-2.64,3.15-5.76,5.91-9.25,8.08c-2.85,1.77-4.83,4.78-8.08,5.95c-3.27,1.13-5.59,3.8-8.53,5.51
	c-3.24,1.8-6.04,4.32-9.37,5.95c-5.15,1.41-10.34,2.82-15.3,4.84c0.29,2.01,2.52,2.8,4.18,3.43c4.58,0.92,9.59,0.06,13.4-2.72
	c3.24-2.32,7.21-3.29,10.55-5.43c1.61-1.05,3.37-1.84,5.12-2.62c2.17-0.91,2.89-3.54,5.03-4.51c2.84-1.52,5.96-2.84,7.96-5.5
	c1.41-2.02,3.53-3.32,5.43-4.81c3.52-3.35,7.79-5.77,11.29-9.15c0.97-0.77,1.86-2.25,3.3-1.8c0.06,0.32,0.1,0.65,0.14,0.97
	c3.02-1.97,6.05-4.02,9.16-5.85C118.92,109.32,119.1,107.69,119.67,106.16z"/>
		</clipPath>

		<clipPath id="味-7">
			<path d="M187.9,159.19c-0.1-2.41-2.39-3.57-3.65-5.32c-2.6-3.3-3.06-8.07-6.59-10.66c-3.1-1.68-6.54-2.7-9.56-4.56
	c-2.1-1.29-3.99-2.88-6.12-4.12c-2.4-1.4-5.22-1.82-7.64-3.17c-3.65-1.95-7.23-4.05-11.05-5.65c-3.38-1.34-6.04-3.97-9.43-5.27
	c-4.97-2.06-10.54-3.23-14.66-6.9l-0.08,8.98c0.14-0.48,0.33-0.94,0.59-1.39c1.06,0.04,2.15,0.17,3.07,0.77
	c2.68,1.56,5.43,3.03,7.87,4.95c5.23,4.19,10.8,7.92,16.06,12.08c2.82,2.11,5.66,4.19,8.65,6.07c1.72,1.11,3.73,1.71,5.38,2.95
	c2.69,2.04,5.72,3.61,8.34,5.76c1.75,1.45,4.09,1.79,6.02,2.91c4.3,2.47,6.73,7.21,11.1,9.59
	C188.63,164.81,188.19,161.54,187.9,159.19z"/>
		</clipPath>

		<clipPath>
		</clipPath>

		<clipPath>
		</clipPath>

		<clipPath>
		</clipPath>

		<clipPath>
		</clipPath>

		<clipPath>
		</clipPath>

	</defs>
</svg>
