
<svg version="1.1"
	xmlns="http://www.w3.org/2000/svg"
	xmlns:xlink="http://www.w3.org/1999/xlink" x="0px" y="0px" viewBox="0 0 140 160" style="enable-background:new 0 0 140 160;" xml:space="preserve">
	<style type="text/css">
	.pen {
            fill: none;
            stroke: black;
            stroke-width: 30;
            stroke-linecap: round;
            stroke-linejoin: round;

            stroke-dashoffset: 0;
            animation-duration: 3s;
            animation-delay: 6s;
            animation-iteration-count: 1;
            animation-timing-function: ease;
        }

        .line-1 {
            clip-path: url(#材-1);
            stroke-dasharray: 69;
            animation-name: draw-材-1;
        }

        @keyframes draw-材-1 {
            0% {
                stroke-dashoffset: 69;
            }

            16% {
                stroke-dashoffset: 0;
            }
        }

        .line-2 {
            clip-path: url(#材-2);
            stroke-dasharray: 211;
            animation-name: draw-材-2;
        }

        @keyframes draw-材-2 {

            0%,
            16% {
                stroke-dashoffset: 211;
            }

            32% {
                stroke-dashoffset: 0;
            }
        }

        .line-3 {
            clip-path: url(#材-3);
            stroke-dasharray: 183;
            animation-name: draw-材-3;
        }

        @keyframes draw-材-3 {

            0%,
            32% {
                stroke-dashoffset: 183;
            }

            48% {
                stroke-dashoffset: 0;
            }
        }

        .line-4 {
            clip-path: url(#材-4);
            stroke-dasharray: 71;
            animation-name: draw-材-4;
        }

        @keyframes draw-材-4 {

            0%,
            48% {
                stroke-dashoffset: 71;
            }

            64% {
                stroke-dashoffset: 0;
            }
        }
		.line-5 {
            clip-path: url(#材-5);
            stroke-dasharray: 173;
            animation-name: draw-材-5;
        }

        @keyframes draw-材-5 {

            0%,
            64% {
                stroke-dashoffset: 173;
            }

            80% {
                stroke-dashoffset: 0;
            }
        }
		.line-6 {
            clip-path: url(#材-6);
            stroke-dasharray: 117;
            animation-name: draw-材-6;
        }

        @keyframes draw-材-6 {

            0%,
            80% {
                stroke-dashoffset: 117;
            }

            100% {
                stroke-dashoffset: 0;
            }
        }

		.line-1,.line-2,.line-3,.line-4,.line-5,.line-6{
			display:block;
		}
	</style>






	<path id="line-1" class="pen line-1" d="M4.19,69.52c5.89-1.41,11.91-2.88,16.97-6.19c2.15-1.41,4.08-3.11,6.14-4.64
	c3.02-2.23,6.32-4.06,9.6-5.88c9.23-5.12,18.46-10.23,27.68-15.35"/>
	<path id="line-2" class="pen line-2" d="M69.36,23.43C64.55,34.38,55.56,42.93,49.6,53.3c-7.77,13.51-10.06,29.42-15.97,43.84
	c-4.98,12.15-12.58,23.22-22.12,32.24c9.04-5.88,17.42-12.77,24.92-20.51c5-5.16,9.65-10.73,15.34-15.12
	c3.06-2.36,6.38-4.36,9.33-6.86c5.84-4.96,9.98-11.71,15.9-16.58"/>
	<path id="line-3" class="pen line-3" d="M45.9,0.98c2.25,40.89,1.48,81.96-2.31,122.74c-1.09,11.75-2.44,23.52-2.07,35.31
	c-3.69-7.21-8.32-13.94-13.72-19.97"/>
	<path id="line-4" class="pen line-4" d="M68.47,69.74c2.86,0.17,5.66-0.8,8.36-1.76c14.29-5.07,28.58-10.14,42.87-15.21
	c5.27-1.87,10.58-3.75,16.11-4.6"/>
	<path id="line-5" class="pen line-5" d="M111.62,1.97c6.46,51.18,4.25,103.08-0.56,154.45c-5.68-2.01-8.16-9.78-14.09-10.84"/>
	<path id="line-6" class="pen line-6" d="M130.23,42.86c-5.97,10.78-11.96,21.58-19.25,31.51c-2.12,2.88-4.34,5.69-6.57,8.49
	c-14.21,17.9-28.71,36.08-47.52,49.06"/>
	<defs>
		<clipPath id="材-1">
			<path d="M55.72,33.6c0-0.23,0.01-0.46,0.01-0.69c-5.71,1.43-9.97,4.84-15.1,7.45c-0.53,0.99-1.19,1.87-1.96,2.42
	C29.13,49.7,19.34,56.28,9.53,62.81c-3.45,2.3-3.74,4.05-0.03,5.93c2.33,1.18,4.99,2.19,7.54,2.32c4.41,0.22,8.85-0.31,13.83-0.55
	c-0.01,0.15-0.02,0.31-0.03,0.47c5.95-5.77,12.91-11.37,20.5-14.94c0.02-0.34,0.05-0.7,0.07-1.04c7.19-2.79,13.51-5.71,14-13.49
	C65.8,35.53,60.67,34.33,55.72,33.6z"/>
		</clipPath>
		<clipPath id="材-2">
			<path d="M76.14,70.25c-8.51,6.4-17.01,12.8-25.52,19.2c-0.51-0.21-1.02-0.42-1.53-0.64c0.79-11.32,1.57-22.63,2.33-33.57
	c7.19-2.79,13.51-5.71,14-13.49c0.37-5.85-4.52-7.12-9.37-7.86C47.29,46.19,38.61,58.48,30.7,70.77c0.06,0,0.11-0.01,0.17-0.01
	c-0.16,2.26-0.14,4.73-0.55,7.12c-2.5,14.62-9.8,27.11-17.68,39.33c-1.26,1.95-2.58,3.89-3.57,5.98c-2.33,4.89,2.5,5.75,4.79,7.89
	c2.13,1.99,4.24,1.71,6.53-0.45c4.53-4.27,9.37-8.2,14.75-12.84c-0.01,0.05-0.01,0.11-0.02,0.16l12.96-9.38
	c0.09-1.03,0.9-2.09,1.59-2.96c8.02-10.19,16.09-20.35,24.15-30.52c1.05-1.33,2.13-2.63,3.2-3.94
	C76.72,70.84,76.43,70.55,76.14,70.25z"/>
		</clipPath>
		<clipPath id="材-3">
			<path d="M50.53,89.25c-0.51-0.21-1.02-0.42-1.53-0.64c0.79-11.32,1.57-22.63,2.33-33.57c1.03-0.4,2.04-0.8,3.02-1.22
	l1.85-20.09c-0.19-0.03-0.38-0.06-0.57-0.09c0-3.23,0.37-6.27-0.08-9.18c-0.76-4.87-1.7-9.79-3.34-14.41
	c-0.52-1.47-3.63-2.94-5.37-2.75c-1.27,0.15-2.99,2.95-3.17,4.71c-0.83,8.07-0.97,16.21-1.83,24.27c-0.25,2.31-1.48,5.24-3.26,6.53
	c-0.17,0.13-0.35,0.25-0.52,0.37c-0.57,11.5-2.16,22.24-3.76,34.25c-1.76,13.17,2.65,27.11,0.37,40.47
	c0.13-0.11,0.25-0.22,0.38-0.33c-0.79,6.08-1.59,11.16-2.07,16.26c-0.59,6.19-0.47,6.2-6.12,5.42c1.63,4.42,3.08,8.98,5.04,13.32
	c0.84,1.86,2.52,3.51,4.17,4.8c4.35,3.39,9.18,1.32,9.6-4.2c0.46-6.13,0.41-12.3,0.72-18.44c0.44-8.79,0.96-17.57,1.59-26.35
	c0.07-1.04,0.89-2.11,1.59-3c0.01-0.01,0.01-0.02,0.02-0.03l1.53-16.56C50.92,88.96,50.73,89.1,50.53,89.25z"/>
		</clipPath>
		<clipPath id="材-4">
			<path d="M135.67,48.54c-0.91-1.87-3.2-3.76-5.24-4.2c-2.56-0.55-5.43,0.36-8.59,0.68c0-0.01,0-0.02,0-0.03l-12.7,5.57
	c-0.38,0.42-0.79,0.76-1.21,0.96c-11.24,5.39-22.64,10.44-33.97,15.63c-0.6,0.28-1.07,0.86-2.63,2.17
	c13.67-2.34,26.02-4.46,39.33-6.74c-0.05,0.07-0.1,0.15-0.15,0.22l11.46-1.75c0.29-1.2,1.04-2.59,2-3.2
	c2.65-1.69,5.75-2.72,8.29-4.54C133.85,52.18,136.1,49.42,135.67,48.54z"/>
		</clipPath>
		<clipPath id="材-5">
			<path d="M121.84,44.93c0.62-8.09,1.05-15.88,1.84-23.63
	c0.86-8.39-3.36-14.39-11.63-15.93c-2.57-0.48-3.92,0.12-2.96,3.18c0.78,2.5,1.61,5.12,1.68,7.7c0.25,10.16,0.33,20.33,0.12,30.49
	c-0.02,0.85-0.43,1.89-1.02,2.8c1.19,10.56,2.14,22.79-0.02,32.21c0.01-0.01,0.02-0.02,0.03-0.04c0,3.25,0.1,4.88-0.02,6.5
	c-1.11,15.42-2.26,30.84-3.41,46.26c-0.26,3.48,0.61,7.91-1.21,10.12c-1.45,1.75-6.2,0.77-8.61,0.94c2.64,2.91,5.5,6.43,8.78,9.5
	c1.2,1.12,3.8,2.07,5.05,1.51c2.32-1.04,5.64-3.06,5.88-4.99c1.12-9.05,1.92-18.22,1.74-27.33c-0.42-21.17-0.67-42.29,3.85-63.13
	c0.18-0.83,0.6-1.77,1.16-2.49l0.74-13.94C123.18,44.76,122.52,44.86,121.84,44.93z"/>
		</clipPath>
		<clipPath id="材-6">
			<path d="M119.43,76.14c0.6-5.06,1.41-10.11,2.5-15.15c0.27-1.22,1.04-2.69,2.03-3.32c2.22-1.41,4.75-2.37,7.01-3.71
	c-11.87-1.28-24.16,3.92-33.38,10.68c4.31-0.74,8.63-1.48,13.06-2.24c-16.86,24.25-32.55,48.66-53.76,68.98
	c8.2-1.09,15.92-6.82,22.12-14.26c9.72-11.68,19.92-22.97,30.86-35.5c0,0.33,0,0.63,0,0.92C112.3,79,115.74,77.32,119.43,76.14z"/>
		</clipPath>
	</defs>
</svg>
