<?xml version="1.0" encoding="utf-8"?>
<!-- Generator: Adobe Illustrator 27.9.0, SVG Export Plug-In . SVG Version: 6.00 Build 0)  -->
<svg version="1.1" id="图层_1"
	xmlns="http://www.w3.org/2000/svg"
	xmlns:xlink="http://www.w3.org/1999/xlink" x="0px" y="0px" viewBox="0 0 132 132" style="enable-background:new 0 0 132 132;" xml:space="preserve">
	<style type="text/css">
	.pen {
            fill: none;
            stroke: black;
            stroke-width: 30;
            stroke-linecap: round;
            stroke-linejoin: round;

            stroke-dashoffset: 0;
            animation-duration: 3s;
			animation-delay:15s;
            animation-iteration-count: 1;
            animation-timing-function: ease;
        }

        .line-1 {
            clip-path: url(#此-1);
            stroke-dasharray: 48;
            animation-name: draw-此-1;
        }

        @keyframes draw-此-1 {
            0% {
                stroke-dashoffset: 48;
            }

            20% {
                stroke-dashoffset: 0;
            }
        }

        .line-2 {
            clip-path: url(#此-2);
            stroke-dasharray: 199;
            animation-name: draw-此-2;
        }

        @keyframes draw-此-2 {

            0%,
            20% {
                stroke-dashoffset: 199;
            }

            60% {
                stroke-dashoffset: 0;
            }
        }

        .line-3 {
            clip-path: url(#此-3);
            stroke-dasharray: 177;
            animation-name: draw-此-3;
        }

        @keyframes draw-此-3 {

            0%,
            60% {
                stroke-dashoffset: 177;
            }

            100% {
                stroke-dashoffset: 0;
            }
        }

	</style>



	<path id="line-1" class="pen line-1" d="M46.03,10.68c-9.25,12.79-21.67,22.87-33.95,32.79"/>
	<path id="line-2" class="pen line-2" d="M8.35,45.51c0.37,22.9,0.4,45.8,0.07,68.7c2.56-3.66,6.89-5.55,10.59-8.04
	c4.36-2.93,7.98-6.81,11.7-10.51c12.63-12.58,26.8-23.47,40.93-34.33c4.06-3.12,8.12-6.24,12.17-9.35
	c8.33-6.4,16.68-12.82,25.78-18.06"/>
	<path id="line-3" class="pen line-3" d="M80.35,0.62c0.4,26.59,0.79,53.27-2.07,79.71c-0.55,5.06-1.21,10.19-0.45,15.23
	c0.33,2.15,1.02,4.42,2.78,5.7c1.93,1.41,4.56,1.2,6.94,0.94c6.92-0.77,13.84-1.53,20.76-2.3c3.26-0.36,7.39-0.26,8.75,2.72
	c1.1,2.41-0.42,5.16-1.94,7.33c-5.45,7.75-11.7,14.95-18.61,21.44"/>
	<defs>
		<clipPath id="此-1">
			<path class="st0" d="M44.55,20.14c-0.91,3.79-2.59,7.2-5.05,10.18c-5.93,7.17-14.11,10.26-22.78,12.42
	c-0.92,0.23-2.28,0.45-2.56-0.69c-0.18-0.74,0.53-1.81,1.03-2.61c6-9.69,13.73-17.94,21.76-25.95c1.97-1.97,3.46-1.47,4.99,0.26
	C43.53,15.57,43.96,17.89,44.55,20.14z"/>
		</clipPath>
		<clipPath id="此-2">
			<path d="M91.23,51.74c5.93-3.68,11.86-7.35,17.73-11.12c1.48-0.95,3.44-2.08,2.29-4.33c-1.48-2.88-4.61-2.98-7.29-3.66
	c-1.86-0.47-3.29-0.03-4.56,1.91c-2.39,3.66-5.85,6.35-10.08,9.55c-5.08,4.15-11.03,7.33-16.52,10.42
	c-0.31,0.56-0.77,1.09-1.49,1.57C53.99,67.66,38.2,81.22,21.95,94.2c-1.37,1.09-2.42,2.9-5.24,2.43c1.64-2.51,1.93-5.13,2.46-7.65
	c2.82-13.55,1.58-26.45-6.43-38.19c-0.92-1.35-1.83-3.1-3.81-2.55c-1.54,0.43-1.96,1.99-2.36,3.53c-1.12,4.26-1.32,8.61-0.82,12.89
	c1.27,10.68,0.24,21.24-0.87,31.85c-0.5,4.78-0.43,9.64-0.35,14.46c0.05,3.34,1.76,6.48,4.41,7.97c1.9,1.06,3.88-1.78,5.62-3.11
	c16.19-12.29,31.38-25.76,46.72-39.08c3.46-3.01,6.91-6.02,10.93-9.52c-0.01,0.15-0.03,0.29-0.04,0.44
	c5.68-5.11,10.93-11.58,17.55-15.05C90.2,52.31,90.73,52.05,91.23,51.74z"/>
		</clipPath>
		<clipPath id="此-3">
			<path d="M127.28,99.95c-1.41-5.19-6.88-6.12-11.6-7.27c-8.17-1.99-15.78,1.38-23.63,2.43c-7.85,1.06-9.18,0.15-9.42-7.61
	c-0.33-11.12,2.68-21.71,5.14-32.4c0.44-1.92,2.08-2.42,3.47-3.29c0.99-0.62,1.98-1.23,2.97-1.85c-0.05-3.19-0.21-6.38-0.12-9.57
	c-1.52,1.3-3.2,2.58-5.03,3.97c0.59-5.75,0.62-10.59,1.66-15.2c2.05-9.08-2.19-15.74-7.53-22.15c-0.72-0.87-1.41-2.13-2.76-1.76
	c-1.5,0.41-1.69,1.84-1.85,3.19c-1.66,14.2-3.34,28.4-4.98,42.61c-0.23,1.95-0.18,3.7-2.27,5.1c-0.51,0.34-1,0.69-1.5,1.04
	c-0.71,4.76-1.53,9.51-2.39,14.27c1.53-1.33,3.09-2.7,4.78-4.16c-0.67,8.05-1.77,15.22-0.53,22.28
	c2.56,14.58,8.11,22.51,23.72,19.48c5.28-1.02,10.57-2.03,16-3.08c-2.15,8.82-7.85,15.36-12.11,22.73c3.82-2.61,7.1-5.61,10.46-8.51
	c3.53-3.04,7.17-5.95,10.7-9C123.94,108.17,128.7,105.19,127.28,99.95z"/>
		</clipPath>
	</defs>
</svg>
