<?xml version="1.0" encoding="utf-8"?>
<!-- Generator: Adobe Illustrator 27.9.0, SVG Export Plug-In . SVG Version: 6.00 Build 0)  -->
<svg version="1.1" id="图层_1"
	xmlns="http://www.w3.org/2000/svg"
	xmlns:xlink="http://www.w3.org/1999/xlink" x="0px" y="0px" viewBox="0 0 150 150" style="enable-background:new 0 0 150 150;" xml:space="preserve">
	<style type="text/css">
	.pen {
            fill: none;
            stroke: black;
            stroke-width: 30;
            stroke-linecap: round;
            stroke-linejoin: round;

            stroke-dashoffset: 0;
            animation-duration: 3s;
			animation-delay:18s;
            animation-iteration-count: 1;
            animation-timing-function: ease;
        }

        .line-1 {
            clip-path: url(#生-1);
            stroke-dasharray: 140;
            animation-name: draw-生-1;
        }

        @keyframes draw-生-1 {
            0% {
                stroke-dashoffset: 140;
            }

            20% {
                stroke-dashoffset: 0;
            }
        }

        .line-2 {
            clip-path: url(#生-2);
            stroke-dasharray: 136;
            animation-name: draw-生-2;
        }

        @keyframes draw-生-2 {

            0%,
            20% {
                stroke-dashoffset: 136;
            }

            60% {
                stroke-dashoffset: 0;
            }
        }

        .line-3 {
            clip-path: url(#生-3);
            stroke-dasharray: 110;
            animation-name: draw-生-3;
        }

        @keyframes draw-生-3 {

            0%,
            60% {
                stroke-dashoffset: 110;
            }

            100% {
                stroke-dashoffset: 0;
            }
        }
	</style>



	<path id="line-1" class="pen line-1" d="M37.64,49.57c1.31,6.25,1.46,12.73,0.46,19.03c-0.36,2.29-0.88,4.55-1.39,6.81
	c-0.93,4.07-1.85,8.13-2.78,12.2c7.32-9.32,17.08-16.71,28.04-21.23c5.74-2.36,11.78-3.95,17.5-6.35c8.4-3.53,15.96-8.75,23.9-13.21
	c5.43-3.05,11.06-5.74,16.84-8.07"/>
	<path id="line-2" class="pen line-2" d="M82.19,3.86c4.07,20.01,2.61,40.68,1.13,61.04c-0.46,6.35-0.92,12.69-1.45,19.04
	c-0.39,4.66-0.81,9.33-0.75,14.01c0.06,4.73,0.61,9.46,0.39,14.19c-0.31,6.39-2.03,12.65-2.32,19.05c-0.11,2.44-0.01,4.89,0.3,7.31" />
	<path id="line-3" class="pen line-3" d="M66.57,113.66c3.05-6.73,9.23-11.96,16.37-13.85c0.86-0.23,1.79-0.4,2.62-0.07
	c0.6,0.24,1.08,0.73,1.42,1.29c0.96,1.55,0.93,3.56,0.36,5.3c-0.58,1.73-1.65,3.26-2.7,4.75c-5.87,8.33-11.75,16.67-17.62,25
	c9.8-2.89,19.72-5.36,29.73-7.38c3.28-0.66,6.95-1.21,9.73,0.63"/>
	<defs>
		<clipPath id="生-1">
			<path d="M119.99,39.35c-1.47-2.78-4.13-3.55-7.27-2.87
	c-2.68,0.58-4.9,1.97-7.13,3.41c-5.07,3.27-10.15,6.53-16.16,9.29c-4.86,3.69-10.22,6.25-15.13,8.65c-0.65,0.5-1.43,0.93-2.39,1.28
	c-5.74,2.13-11.32,4.7-16.94,7.16c-9,3.95-8.97,3.97-12.61-4.8c-0.75-1.82-1.46-4-3.82-4.1c-2.39-0.09-3.29,2.03-4.05,3.85
	c-2.35,5.68-3.7,11.65-4.91,17.64c-0.59,2.89,0.38,5.61,2.05,7.99c2.73,3.9,7.21,3.92,9.63-0.15c1.36-2.3,3.18-3.88,5.47-4.84
	c8.71-3.66,17.54-7.02,25.72-11.85c0.79-0.47,1.54-0.73,2.15-0.7c5.55-2.29,10.69-5.42,16.08-8.03c0.33-0.23,0.68-0.45,1.08-0.65
	c6.96-3.5,13.88-7.09,20.77-10.73c1.89-1,3.8-2.09,5.41-3.48C120.07,44.59,121.43,42.07,119.99,39.35z"/>
		</clipPath>
		<clipPath id="生-2">
			<path d="M92.76,47.57c-1.13,0.59-2.29,1.16-3.49,1.71c-0.36-6.1,0.75-11.28,1.57-16.51c1.04-6.65,1.29-13.28-3.11-19.05
	c-1.69-2.21-3.64-5.32-6.64-4.34c-3,0.98-2.62,4.58-2.74,7.39c-0.49,11.76-1.03,23.52-1.45,35.28c-0.09,2.44-0.76,4.25-2.31,5.57
	c-0.31,4.19-1.03,8.26-1.87,12.27c2.02-1.09,3.66-0.74,3.49,2.32c-0.31,5.79-0.59,11.58-0.88,17.37c-0.02,0.48-0.12,0.87-0.26,1.22
	l-0.53,36.64c0.98,5.65,2.06,11.34,5.49,9.97c3.81-0.95,4.9-4.64,5.43-9.09L87,88.26c-0.31-0.61-0.37-1.39-0.25-2.45
	c0.68-6.42,1.16-12.87,1.39-19.32c0.1-2.86,1.14-4.59,3.65-5.85c0.43-0.22,0.85-0.44,1.28-0.65C92.55,55.9,92.46,51.74,92.76,47.57z
	"/>
		</clipPath>
		<clipPath id="生-3">
			<path d="M72.21,92.88c-3.75,1.35-7.24,3.3-10.48,5.66c-5.47,3.98-5.9,7.41-1.51,12.71c2.01,2.43,4.02,4.86,6.16,7.18
	c2.16,2.33,2.48,4.22-0.1,6.68c-3.47,3.31-6.46,7.13-9.77,10.61c-2.23,2.34-2.79,4.74-1.25,7.65c1.56,2.93,3.88,3.23,6.76,2.31
	c2.05-0.66,4.13-1.3,6.24-1.68c12.3-2.19,23.37-9.72,36.59-8.16c2.47,0.29,5.45-0.54,5.65-4.23c0.29-5.15-3.15-9.08-8.32-9.33
	c-4.49-0.21-8.99-0.49-13.37,0.87c-3.15,0.98-3.56-0.44-2.54-2.92c0.56-1.36,1.36-2.63,2.13-3.9c3.03-4.99,5.5-10.18,6.24-16.07
	c0.6-4.81-0.82-8.61-5.57-10.43c-1.52-0.58-2.19-1.25-2.37-2.39c-3.8,1.13-7.61,2.11-11.48,2.6C74.94,91.65,73.8,92.31,72.21,92.88z
	"/>
		</clipPath>
	</defs>
</svg>
