<?xml version="1.0" encoding="utf-8"?>
<!-- Generator: Adobe Illustrator 27.9.0, SVG Export Plug-In . SVG Version: 6.00 Build 0)  -->
<svg version="1.1" id="图层_1"
	xmlns="http://www.w3.org/2000/svg"
	xmlns:xlink="http://www.w3.org/1999/xlink" x="0px" y="0px" viewBox="0 0 170 170" style="enable-background:new 0 0 170 170;" xml:space="preserve">
	<style type="text/css">
.pen {
            fill: none;
            stroke: black;
            stroke-width: 30;
            stroke-linecap: round;
            stroke-linejoin: round;

            stroke-dashoffset: 0;
            animation-duration: 3s;
			animation-delay:12s;
            animation-iteration-count: 1;
            animation-timing-function: ease;
        }

        .line-1 {
            clip-path: url(#过-1);
            stroke-dasharray: 95;
            animation-name: draw-过-1;
        }

        @keyframes draw-过-1 {
            0% {
                stroke-dashoffset: 95;
            }

            25% {
                stroke-dashoffset: 0;
            }
        }

        .line-2 {
            clip-path: url(#过-2);
            stroke-dasharray: 178;
            animation-name: draw-过-2;
        }

        @keyframes draw-过-2 {

            0%,
            25% {
                stroke-dashoffset: 178;
            }

            60% {
                stroke-dashoffset: 0;
            }
        }

        .line-3 {
            clip-path: url(#过-3);
            stroke-dasharray: 24;
            animation-name: draw-过-3;
        }

        @keyframes draw-过-3 {

            0%,
            60% {
                stroke-dashoffset: 24;
            }

            80% {
                stroke-dashoffset: 0;
            }
        }

        .line-4 {
            clip-path: url(#过-4);
            stroke-dasharray: 239;
            animation-name: draw-过-4;
        }

        @keyframes draw-过-4 {

            0%,
            80% {
                stroke-dashoffset: 239;
            }

            100% {
                stroke-dashoffset: 0;
            }
        }

	</style>
	<path id="line-1" class="pen line-1" d="M36.39,79.81c13.48-5.47,26.96-10.94,40.44-16.41c3.64-1.48,7.28-2.96,10.78-4.75
	c3.28-1.69,6.42-3.65,9.55-5.61c7.85-4.92,15.71-9.83,23.56-14.75"/>
	<path id="line-2" class="pen line-2" d="M91.1,4.63c1.47,6.94,2.61,13.95,3.43,20.99c0.81,6.96,1.31,13.96,1.8,20.95
	c1.04,14.7,2.08,29.4,2.32,44.14c0.09,5.9,0.06,11.81,0.54,17.69c0.93,11.44,3.81,22.92,2.1,34.27
	c-6.77-11.08-16.8-20.14-28.51-25.75"/>
	<path id="line-3" class="pen line-3" d="M62.02,95.74c6.16,4.89,12.4,9.67,18.72,14.35"/>
	<path id="line-4" class="pen line-4" d="M3.99,69.6c3.1,13.43,6.22,26.93,11.62,39.61s13.27,24.6,24.34,32.81
	c5.63,4.18,11.98,7.31,18.46,9.99c9.52,3.93,19.52,6.92,29.8,7.68s20.86-0.8,29.99-5.57c9.22-4.81,16.52-12.58,23.22-20.54
	c9.09-10.8,17.44-22.22,24.96-34.17"/>
	<defs>
		<clipPath id="过-1">
			<path d="M119.7,39.64c-3.17-4.01-7.32-4.06-11.77-2.57c-0.38,0.13-0.89-0.11-0.55-0.06c0-0.09,0.01-0.17,0.01-0.26
	c-7.01,3.29-14.02,7.02-21.03,10.27c-0.39,0.3-0.83,0.6-1.35,0.9c-13.84,7.94-27.52,16.14-41.14,24.45
	c-1.41,0.86-2.01,3.04-2.98,4.61c1.63,0.97,3.15,2.5,4.89,2.81c12.63,2.26,24.81,0.89,36.34-5.08c2.39-1.23,4.92-2.18,7.98-3.53
	c0,0.02,0,0.04,0,0.05c6.02-4.47,12.44-8.13,19.19-11.14c0.17-0.12,0.34-0.25,0.52-0.37c2.98-2.06,5.93-4.34,8.28-7.06
	C121.38,48.87,121.96,42.5,119.7,39.64z"/>
		</clipPath>
		<clipPath id="过-2">
			<path d="M111.08,36.51c-1.13,0.13-2.3,0.41-3.49,0.81c-0.38,0.13-0.89-0.11-0.55-0.06c0-4.55,1.07-9.19-0.27-12.98
	c-1.65-4.65-5.01-8.85-8.26-12.71c-1.4-1.66-4.6-2.99-6.6-2.58c-1.51,0.31-3.33,3.57-3.42,5.6c-0.43,9.14-0.48,18.31-0.27,27.46
	c0.07,3.1-0.83,4.57-3.54,6.13c0,0-0.01,0-0.01,0.01c-0.34,8.74-1.22,17.7-2.28,26.51c2.21-1.1,4.57-2.01,7.38-3.24
	c0.54,16.45,1.11,32.07,1.54,47.69c0.13,5.01-1.66,5.9-6.01,3.35c-3.65-2.14-7.32-4.25-10.99-6.38c-0.73,0.84-1.47,1.68-2.2,2.51
	c1.51,0.75,3.36,1.16,4.47,2.29c4.5,4.61,9.85,8.86,12.81,14.36c2.58,4.81,5.63,6.42,10.34,6.87c3.54,0.34,5.47-1.01,5.25-4.74
	c-0.74-12.42-1.59-24.83-2.19-37.26c-0.25-5.14,0.03-10.3,0.11-15.45c0.06-3.82,0.87-7.78,0.14-11.43
	c-1.28-6.39,1.72-9.99,6.45-13.27c0.2-0.14,0.39-0.28,0.59-0.41C109.37,51.93,110.26,44.12,111.08,36.51z"/>
		</clipPath>
		<clipPath id="过-3">
			<path d="M82.46,107.28c-1.67,1.58-3.25,4.19-5.35,4.73c-2.08,0.54-5.54-0.28-6.9-1.82c-2.69-3.05-4.49-6.95-6.3-10.66
	c-0.35-0.71,0.68-2.93,1.48-3.2c3.12-1.01,13.74,3.8,15.47,6.76C81.42,104.07,81.68,105.21,82.46,107.28z"/>
		</clipPath>
		<clipPath id="过-4">
			<path d="M4.4,72.17c5.56,2.34,6.2,6.5,7.21,10.24c1.55,5.78,2.55,11.71,4.19,17.46c1.32,4.62,3.14,9.11,4.92,13.59
	c11.03,27.81,45.31,45.09,75.35,40.84c15.51-2.2,28.85-7.96,39.26-19.66c8.62-9.69,16.81-19.75,25.15-29.68
	c1.46-1.74,2.73-3.62,5-5.07c-0.16,0.97-0.14,2.02-0.51,2.89c-7.09,16.69-16.38,31.93-29.05,45.08
	c-13.69,14.21-30.73,18.89-49.63,17.18c-38.98-3.53-64.05-25.49-77.69-61.15c-2.98-7.78-3.51-16.53-4.9-24.88
	C3.36,77.06,4.08,74.93,4.4,72.17z"/>
		</clipPath>
	</defs>
</svg>
