<?xml version="1.0" encoding="utf-8"?>
<!-- Generator: Adobe Illustrator 27.9.0, SVG Export Plug-In . SVG Version: 6.00 Build 0)  -->
<svg version="1.1" id="图层_1"
	xmlns="http://www.w3.org/2000/svg"
	xmlns:xlink="http://www.w3.org/1999/xlink" x="0px" y="0px" viewBox="0 0 150 178" style="enable-background:new 0 0 150 178;" xml:space="preserve">
	<style type="text/css">
.pen {
            fill: none;
            stroke: black;
            stroke-width: 30;
            stroke-linecap: round;
            stroke-linejoin: round;

            stroke-dashoffset: 0;
            animation-duration: 3s;
            animation-delay: 9s;
            animation-iteration-count: 1;
            animation-timing-function: ease;
        }

        .line-1 {
            clip-path: url(#间-1);
            stroke-dasharray: 44;
            animation-name: draw-间-1;
        }

        @keyframes draw-间-1 {
            0% {
                stroke-dashoffset: 44;
            }

            16% {
                stroke-dashoffset: 0;
            }
        }

        .line-2 {
            clip-path: url(#间-2);
            stroke-dasharray: 36;
            animation-name: draw-间-2;
        }

        @keyframes draw-间-2 {

            0%,
            16% {
                stroke-dashoffset: 36;
            }

            32% {
                stroke-dashoffset: 0;
            }
        }

        .line-3 {
            clip-path: url(#间-3);
            stroke-dasharray: 101;
            animation-name: draw-间-3;
        }

        @keyframes draw-间-3 {

            0%,
            32% {
                stroke-dashoffset: 101;
            }

            48% {
                stroke-dashoffset: 0;
            }
        }

        .line-4 {
            clip-path: url(#间-4);
            stroke-dasharray: 275;
            animation-name: draw-间-4;
        }

        @keyframes draw-间-4 {

            0%,
            48% {
                stroke-dashoffset: 275;
            }

            64% {
                stroke-dashoffset: 0;
            }
        }
		.line-5 {
            clip-path: url(#间-5);
            stroke-dasharray: 75;
            animation-name: draw-间-5;
        }

        @keyframes draw-间-5 {

            0%,
            64% {
                stroke-dashoffset: 75;
            }

            80% {
                stroke-dashoffset: 0;
            }
        }
		.line-6 {
            clip-path: url(#间-6);
            stroke-dasharray: 146;
            animation-name: draw-间-6;
        }

        @keyframes draw-间-6 {

            0%,
            80% {
                stroke-dashoffset: 146;
            }

            100% {
                stroke-dashoffset: 0;
            }
        }
	</style>





	<path id="line-1" class="pen line-1" d="M33.67,0.54c4.32,13.9,11.97,26.76,22.12,37.19"/>
	<path id="line-2" class="pen line-2" d="M24.5,31.72c1.94,11.44,5.93,22.53,11.73,32.58"/>
	<path id="line-3" class="pen line-3" d="M22.6,61.35c0.95,24.68-3.07,49.25-4.79,73.88c-0.62,8.85-0.89,18.04,2.48,26.25"/>
	<path id="line-4" class="pen line-4" d="M49.88,46.5c12.53-6.26,25.06-12.52,37.59-18.77c4.85-2.42,9.74-4.86,14.98-6.25
	c8.86-2.35,18.22-1.57,27.35-0.78c0.41,1.85,0.15,3.77-0.08,5.66c-6.22,49.94,1.05,100.46,1.87,150.78
	c-9.75-3.84-13.81-17.68-24.19-19.13"/>
	<path id="line-5" class="pen line-5" d="M63.55,56.58c0.49,4.05,0.67,8.14,0.52,12.22c-0.11,3.17-0.41,6.33-0.72,9.49
	c-1.68,17.48-3.38,35.11-8.58,51.89"/>
	<path id="line-6" class="pen line-6" d="M61.94,75.67c4.22-2.95,8.08-6.44,12.52-9.03s9.74-4.27,14.76-3.13c1.13,0.26,2.28,0.69,3.06,1.55
	c1.1,1.22,1.23,3.01,1.29,4.65c0.51,15.12-0.44,30.48-5.17,44.85c-0.58,1.78-1.24,3.57-2.41,5.04s-2.91,2.58-4.78,2.54
	c-1.39-0.03-2.68-0.68-3.85-1.43c-3.8-2.43-6.95-6.45-6.92-10.96c0.03-3.28,1.71-6.32,3.69-8.94c4.34-5.75,10.36-10.23,17.11-12.75" />
	<defs>
		<clipPath id="间-1">
			<path d="M56.56,27.71c-0.03,0.49-0.02,1.32-0.14,2.14c-1.41,9.91-4.31,11.17-12.43,5.44
	c-6.67-4.72-6.47-4.78-8.52-12.36c-1.34-4.96-1.08-9.87-0.61-14.8c0.31-3.24,2.28-4.63,5.6-3.44C46.21,6.75,56.51,21.26,56.56,27.71
	z"/>
		</clipPath>
		<clipPath id="间-2">
			<path d="M36.02,53.66c-0.1,2.91-1.38,4.76-3.7,5.74c-2.3,0.96-3.73-0.65-5.05-2.17
	c-4.76-5.48-4.55-14.52,0.48-19.57c1.05-1.05,3.23-2.25,3.11,0.11C30.61,43,32.86,47,35.4,51.09C35.9,51.88,35.87,53,36.02,53.66z" />
		</clipPath>
		<clipPath id="间-3">
			<path d="M23.42,66.52c3.28,8.05,2.99,16.27,1.75,24.51c-2.22,14.82-3.89,29.66-1.54,44.63
	c0.59,3.76,1.71,7.45,2.12,11.22c0.71,6.55-1.81,10.58-6.45,11.01c-5.09,0.46-9.02-3.48-9.45-9.94c-0.68-10.17,0.59-20.25,2.3-30.24
	c2.66-15.53,5.62-31.01,8.45-46.51C20.94,69.41,21.22,67.59,23.42,66.52z"/>
		</clipPath>
		<clipPath id="间-4">
			<path d="M53.7,44.14c7.48-5.74,15.44-10.89,24.05-14.69c9.97-4.4,19.42-10.23,30.39-12.15
	c5.67-0.99,11.33-0.08,16.9,0.75c5.1,0.76,7.49,4.7,7.22,10.89c-0.91,21.14-0.87,42.26,0.15,63.41c0.73,15.21,4.36,29.91,6.66,44.85
	c1.7,11.07,2.07,22.21-1.27,33.14c-2.22,7.25-6.39,8.93-12.79,5.21c-7.31-4.25-10.82-12.34-17.8-17.08
	c4.29-1.58,7.44,0.86,10.84,2.01c6.78,2.29,8.21,1.24,7.95-6.07c-1.33-37.1-3.53-74.14-9.39-110.85
	c-0.97-6.07-2.39-12.08-3.21-18.16c-0.63-4.59-3.04-4.95-6.58-3.53c-8.48,3.4-16.84,7.06-24.8,11.57
	C73.18,38.43,64.02,42.62,53.7,44.14z"/>
		</clipPath>
		<clipPath id="间-5">
			<path d="M67.8,66.77c-0.28-0.51-0.47-0.75-0.48-0.98c-0.09-2.42,0.78-5.86-2.45-6.23c-3.66-0.42-2.95,3.5-3.25,5.6
	c-2.07,14.18-5.68,27.96-10.3,41.5c-1.51,4.42-2.84,8.92-2.31,13.65c0.54,4.86,4.23,7.26,8.32,8.18c4.27,0.96,5.51-3.02,6.59-6.08
	c1.12-3.17,1.72-6.52,2.57-10C66.72,97.2,65.79,81.98,67.8,66.77z"/>
		</clipPath>
		<clipPath id="间-6">
			<path d="M96.03,114.76c-0.26,1.62-0.84,3.21-1.46,4.74c-2.34,5.7-6.44,9.56-12.72,9.63c-6.1,0.07-10.11-3.79-12.61-9.08
	c-1.19-2.52-1.86-5.29-2.88-8.28c-0.02,0.09-0.04,0.17-0.06,0.26c0.23-15.22-0.69-30.43,1.31-45.65c0.04,0.07,0.08,0.14,0.12,0.22
	c3.81-3.56,7.49-7.16,12.54-8.71c8.08-2.48,11.92-0.88,13.49,7.32C96.9,81.57,98.74,98.1,96.03,114.76z M81.97,87.51
	c1.63-0.79,3.15-1.51,3.24-3.87c0.23-5.78-0.81-11.24-3.57-16.3c-0.51-0.94-0.96-2.83-2.89-1.59c-5.75,3.67-10.87,7.99-11.54,15.3
	c-0.66,7.26-0.75,14.57-1.09,21.86C69.54,95.6,75.03,90.85,81.97,87.51z M84.04,99.47c-2.31-0.81-3.86,1.29-5.21,2.92
	c-0.6,0.72-1.1,1.75-1.13,2.66c-0.12,3.12-0.13,6.96,3.6,7.5c3.74,0.54,2.93-3.5,3.65-5.79c0.24-0.76,0.12-1.63,0.18-2.59
	C84.71,102.67,86.2,100.23,84.04,99.47z"/>

		</clipPath>
	</defs>
</svg>
